<svg id="Calque4" xmlns="http://www.w3.org/2000/svg" width="73.16" height="73.16" viewBox="0 0 73.16 73.16">
  <g id="Layer_1" data-name="Layer 1">
    <path id="Tracé_871" data-name="Tracé 871" d="M52.11,15.53A36.58,36.58,0,1,0,88.68,52.1,36.58,36.58,0,0,0,52.11,15.53Zm0,.911A35.659,35.659,0,0,1,87.179,58.561c-1.253-2.568-3.034-6.637-3.7-8.221a3.831,3.831,0,0,0-3.272-2.35H64.939c-1.915,0-3.986,2.506-4.338,5.28A12.228,12.228,0,0,1,58.1,58.633,5.726,5.726,0,0,1,62.4,61.491l9.381,20.345c-.849.559-1.708,1.087-2.609,1.574-1.957-4.359-8.045-17.86-9.1-19.765A3.551,3.551,0,0,0,56.966,61.5H41.436a3.582,3.582,0,0,0-2.982,2.309L30.678,80.583c-.839-.632-1.646-1.294-2.423-2l7.382-15.748a6.689,6.689,0,0,1,4.67-4.224V58.2a13.2,13.2,0,0,1-2.381-6.388H24.041a3.448,3.448,0,0,0-2.723,1.843l-3.593,7.921A35.669,35.669,0,0,1,52.11,16.441ZM82.861,66.854l.921,1.6c-.259.507-.538,1.035-.818,1.5ZM39.2,85.387c-.714-.28-1.408-.58-2.071-.9L39.2,80.117Zm20.407-5.312,2.92,6.14c-.942.29-1.895.528-2.858.735Z" transform="translate(-15.52 -15.53)" fill="#1078ad"/>
    <path id="Tracé_872" data-name="Tracé 872" d="M30.568,49.437a7.558,7.558,0,1,0-7.558-7.558A7.558,7.558,0,0,0,30.568,49.437Z" transform="translate(-15.255 -14.865)" fill="#1078ad"/>
    <circle id="Ellipse_300" data-name="Ellipse 300" cx="8.521" cy="8.521" r="8.521" transform="translate(21.712 35.692) rotate(-45)" fill="#1078ad"/>
    <circle id="Ellipse_301" data-name="Ellipse 301" cx="8.521" cy="8.521" r="8.521" transform="translate(45.245 22.137) rotate(-45)" fill="#1078ad"/>
  </g>
</svg>
