<svg id="Calque_2" data-name="Calque 2" xmlns="http://www.w3.org/2000/svg" width="105.475" height="128" viewBox="0 0 105.475 128">
  <g id="Layer_1" data-name="Layer 1">
    <path id="Tracé_905" data-name="Tracé 905" d="M92.443,34.769V29.927h-5.4V22.078h6.765a2.919,2.919,0,1,0,0-5.838H73.32a2.919,2.919,0,1,0,0,5.838h7.359v7.848H74.753v5.122L63.3,35.206C51.68,36.219,51.68,45.152,51.68,45.152V53.42H61.923V47.284a2.325,2.325,0,0,1,2.2-1.993l13.057-.14a7.491,7.491,0,0,0,13.634-.14l14.089-.157V34.594Z" transform="translate(0.569 -16.24)" fill="#1078ad"/>
    <path id="Tracé_906" data-name="Tracé 906" d="M41.386,75.83c7.481.752,7.831,12.044,7.831,12.044s9.317-21.64,10.156-23.58,2.867-6.31,6.747-6.485A7.5,7.5,0,0,1,72.185,60.8a6.73,6.73,0,0,1,5.8-4.16,7.446,7.446,0,0,1,6.537,3.3h4.387C94.507,54.994,88.2,51.9,88.2,51.9l-32.827.472C51.874,71.6,36.561,69.031,36.561,69.031c-1.591-1.241.42-2.272.42-2.272C52.538,67.09,52.87,50.782,52.87,50.782c1.538-.752,8.95-6.712,13.39-10.348a4,4,0,0,0,.3-5.856l-.1-.1a4.038,4.038,0,0,0-5.244-.507L41.718,47.425a22.846,22.846,0,0,0-19.91,22.112C21.214,81.9,34.394,90.059,34.394,90.059,33.24,82.857,33.869,75.079,41.386,75.83Z" transform="translate(-21.789 -3.534)" fill="#1078ad"/>
    <path id="Tracé_907" data-name="Tracé 907" d="M90.129,79.449a9.124,9.124,0,0,0-2.412.315l2.779-6.1a4.306,4.306,0,0,0-7.831-3.583l-8.25,17.9c-1.975.122-1.328-1.748-1.328-1.748l10.226-22.6a4.073,4.073,0,0,0-7.394-3.391L65.8,82.159a1.294,1.294,0,0,1-1.94-1.049L76.285,53.859a4.038,4.038,0,0,0-1.748-5.244h0a4.02,4.02,0,0,0-5.559,1.87L56.55,77.806C54.54,78.82,54.662,76.5,54.662,76.5l9.474-21.308a3.97,3.97,0,0,0-7.219-3.3L43.37,80.585a3.828,3.828,0,0,0-.3,2.272l1.154,6.188a.8.8,0,0,1-.664.577,1.486,1.486,0,0,1-1.748-1.241L38.808,71.059a4.265,4.265,0,0,0-8.443,1.119c.385,4.073.909,9.631.979,10.488.14,1.451,1.066,20.347,1.066,20.347,4.09,14.631,15.452,18.3,25.608,17.183s16.8-12.236,16.8-12.236L76.18,105a6.992,6.992,0,0,0,2.972.647,7.184,7.184,0,0,0,7.2-7.2,6.205,6.205,0,0,0,0-.8,9.335,9.335,0,0,0,3.828.8,9.509,9.509,0,0,0,0-19.018ZM84.343,98.432a5.244,5.244,0,0,1-5.244,5.244,5.139,5.139,0,0,1-2.133-.472l4.318-9.439a4.58,4.58,0,0,1,.891.524,8.914,8.914,0,0,0,1.5,1.748A5.087,5.087,0,0,1,84.343,98.432Zm5.786-2.657a6.835,6.835,0,0,1-6.835-6.328L86.056,83.4a6.747,6.747,0,0,1,4.073-1.346,6.87,6.87,0,1,1,0,13.722Z" transform="translate(-15.383 7.618)" fill="#1078ad"/>
    <path id="Tracé_908" data-name="Tracé 908" d="M58.27,53.948h2.447c2.692,0,4.09,4.02,4.09,4.02h2.465a3.671,3.671,0,0,0,2.762-3.758,4.789,4.789,0,0,0-2.639-4.3H58.3Z" transform="translate(5.499 8.945)" fill="#1078ad"/>
    <path id="Tracé_909" data-name="Tracé 909" d="M70.554,57.4A2.552,2.552,0,1,0,68,59.954,2.552,2.552,0,0,0,70.554,57.4Z" transform="translate(10.869 12.64)" fill="#1078ad"/>
    <circle id="Ellipse_307" data-name="Ellipse 307" cx="5.209" cy="5.209" r="5.209" transform="translate(83.101 70.182)" fill="#1078ad"/>
    <path id="Tracé_910" data-name="Tracé 910" d="M76.081,64.13A3.671,3.671,0,1,0,79.752,67.8a3.671,3.671,0,0,0-3.671-3.671Z" transform="translate(16.075 19.581)" fill="#1078ad"/>
  </g>
</svg>
