<svg id="Calque_2" data-name="Calque 2" xmlns="http://www.w3.org/2000/svg" width="122.227" height="130" viewBox="0 0 122.227 130">
  <g id="Layer_1" data-name="Layer 1">
    <path id="Tracé_867" data-name="Tracé 867" d="M95.088,58.708a21.207,21.207,0,0,1,5.151,7.888c2.522,6.466,1.853,7.651.582,8.47s-6.142-7.608-7.2-15.6a.884.884,0,0,1,1.466-.754ZM77.846,49.246A56.037,56.037,0,0,0,76.618,59.4c-.172,3.082,1.573,8.75,3.1,5.991a21.013,21.013,0,0,0,1.056-11.746,21.832,21.832,0,0,0-1.293-4.483.874.874,0,0,0-1.746.086Zm-26.38-31.38c-3.1-.862-9.095-1.7-12.931,0A88.062,88.062,0,0,0,10.518,37.457C-.323,49.117,0,52.845,0,56.035s3.1,8.039,8.125,12.629L29.872,88.579,12.738,115.691a8.276,8.276,0,0,0-1.228,5,14.052,14.052,0,0,0,.8,3.815,8.621,8.621,0,0,0,8.621,5.474h1.121a8.168,8.168,0,0,0,5.431-3.556L49.031,93.967l-2.888.108A44.2,44.2,0,0,1,30.626,64.117s-1.918-3.966-3.535-4.31a36.637,36.637,0,0,0,2.8-2.457A115.239,115.239,0,0,1,34.7,36.7c2.888-7.069,6.1-11.767,9.612-13.168s7.5,1.616,8.9,4.181a7.2,7.2,0,0,1,0,5.668,47.63,47.63,0,0,0-5.151,10.173s8.879-3.858,11.25-11.983S54.57,18.729,51.467,17.867Zm.884,64.354a6.466,6.466,0,0,1,1.853,5.3,6.121,6.121,0,0,1-3.966,4.7h-4.31S34.4,81.272,32.07,66.682c-1.875-11.746,0-19.892,3.491-29.138A29.246,29.246,0,0,1,43.1,25.862a3.793,3.793,0,0,1,2.91-.991A7.349,7.349,0,0,1,51.1,27.026a5.733,5.733,0,0,1,.841,1.659,7.091,7.091,0,0,1-.776,5.668c-2.155,3.491-6.724,11.983-7.134,18.47V63.3s2.306,12.673,8.319,18.923Zm63.406,40.41c-5.754.905-7.845.625-8.621,1.185s-2.285,2.155-10.5,3.1a44.549,44.549,0,0,1-15.69,0c-4.935-.841-7.672-.366-10.5-2.565s.366-4.31,3.75-5.108,4.095-1.013,5-2.155a19.7,19.7,0,0,1,7.306-4.009s-.647-25.367-1.1-29.655-3.6-39.289-6.035-45.259c0,0,1.961-1.207,2.8-1.034s3.836,9.267,5.41,14.117S92.071,65.712,93.9,71.833s6.94,25.992,7.845,30.173,1.1,9.5,1.638,10.776,7.845,2.155,9.849,2.155a20.043,20.043,0,0,1,8.621,3.1C123.041,119.161,121.489,121.7,115.756,122.631Zm4.31,4.957c0,1.207-2.349,2.155-5.259,2.155s-5.259-.991-5.259-2.155,2.349-2.155,5.259-2.155,5.172.97,5.172,2.155ZM73.73,116.531c-2.78,0-5.022-.711-5.022-1.616s2.155-1.595,5.022-1.595,5.022.711,5.022,1.595S76.51,116.531,73.73,116.531ZM77.588,33.75a16.854,16.854,0,1,1,11.939-4.936A16.875,16.875,0,0,1,77.588,33.75Z" transform="translate(0)" fill="#1078ad"/>
  </g>
</svg>
