<svg id="Fichier_7" data-name="Fichier 7" xmlns="http://www.w3.org/2000/svg" xmlns:xlink="http://www.w3.org/1999/xlink" width="138.587" height="138.587" viewBox="0 0 138.587 138.587">
  <defs>
    <clipPath id="clip-path">
      <circle id="Ellipse_303" data-name="Ellipse 303" cx="69.294" cy="69.294" r="69.294" transform="translate(0 0)" fill="none"/>
    </clipPath>
  </defs>
  <g id="Calque_2" data-name="Calque 2" transform="translate(0 0)">
    <g id="Layer_1" data-name="Layer 1">
      <g id="Groupe_144" data-name="Groupe 144" clip-path="url(#clip-path)">
        <path id="Tracé_873" data-name="Tracé 873" d="M76.683,67.046V65.81A6.028,6.028,0,0,0,76.683,67.046Z" transform="translate(36.323 28.81)" fill="#fbc7b2"/>
        <path id="Tracé_874" data-name="Tracé 874" d="M76.51,62.48v0Z" transform="translate(36.225 26.503)" fill="#fbc7b2"/>
        <path id="Tracé_875" data-name="Tracé 875" d="M76.588,65.134V64.05A7.709,7.709,0,0,0,76.588,65.134Z" transform="translate(36.266 27.591)" fill="#fbc7b2"/>
        <path id="Tracé_876" data-name="Tracé 876" d="M113.451,71.247c-.169-2.743-.288-5.5-.356-8.245v-.508C97.875,76.783,80.675,87.076,70.2,87.076S42.515,76.749,27.312,62.46a169.5,169.5,0,0,1-3.572,32.4A69.26,69.26,0,0,0,116.4,93.848a146.829,146.829,0,0,1-2.946-22.6Z" transform="translate(-0.343 26.489)" fill="#1078ad"/>
        <path id="Tracé_877" data-name="Tracé 877" d="M113.519,72.279V71.247l-.1-1.879V62.494C97.875,76.783,80.675,87.076,70.2,87.076S42.515,76.749,27.312,62.46a169.5,169.5,0,0,1-3.572,32.4,69.412,69.412,0,0,0,23.431,13.544c11.715-1.067,23.9-3.64,31.709-6.772C95.285,95.067,101.244,85.163,113.519,72.279Z" transform="translate(-0.343 26.489)" fill="#00395a"/>
        <path id="Tracé_878" data-name="Tracé 878" d="M36.411,98.914C51.614,113.2,68.831,123.5,79.294,123.5s27.68-10.327,42.883-24.616h0a125.925,125.925,0,0,0,24.7-31.252A69.31,69.31,0,0,0,10.61,65.461C16.349,77.143,25.864,88.977,36.411,98.914Z" transform="translate(-9.442 -9.932)" fill="#1078ad"/>
        <path id="Tracé_879" data-name="Tracé 879" d="M69.319,24.84a6.772,6.772,0,0,1-2.675,5.35c-2.776,1.879-9.024,1.185-9.024,1.185s-6.247.694-9.024-1.185a6.772,6.772,0,0,1-2.675-5.35c-3.386.288-5.079,4.554-2.472,8.922,1.693,2.793,7.026,3.03,10.666,2.827a68.8,68.8,0,0,1,6.992,0c3.64.2,9.024,0,10.683-2.827C74.364,29.394,72.688,25.111,69.319,24.84Z" transform="translate(12.435 0.419)" fill="#fff"/>
        <path id="Tracé_880" data-name="Tracé 880" d="M89.6,51.215a38,38,0,0,1-4.368-3.708c-3.386-3.115-7.4-7.568-12.528-8.126a8.465,8.465,0,0,0-6.112,1.168c-.9.677-1.236,1.151-1.541,1.337-.322-.186-.66-.66-1.558-1.337a8.465,8.465,0,0,0-6.112-1.168c-5.079.559-9.108,5.079-12.528,8.126a38.008,38.008,0,0,1-4.368,3.708c-1.9,1.253-5.367-.711-9.024-.593C32.12,52.2,40.4,53.8,44.8,60.594c6.146,9.515,17.709,9.091,20.316,8.939,2.523.152,14.086.576,20.316-8.939,4.385-6.772,12.68-8.465,13.324-9.972C95.014,50.5,91.51,52.467,89.6,51.215ZM70.974,56.073a33.1,33.1,0,0,1-5.942.88,32.878,32.878,0,0,1-5.942-.88,64.177,64.177,0,0,1-7.161-2.336c4.673-.593,8.465-4.2,13.1-5.688,4.588,1.49,8.465,5.079,13.087,5.688a62.786,62.786,0,0,1-7.127,2.336Z" transform="translate(5.007 10.393)" fill="#fff"/>
        <path id="Tracé_881" data-name="Tracé 881" d="M89.73,49.823a36.349,36.349,0,0,1-4.368-3.284c-3.386-2.743-7.4-6.67-12.528-7.161a9.278,9.278,0,0,0-6.112,1.033c-.948.626-1.27,1.05-1.608,1.2h0c-.322-.152-.643-.576-1.693-1.2a9.244,9.244,0,0,0-6.112-1.033C52.231,39.868,48.2,43.8,44.8,46.539a37.94,37.94,0,0,1-4.385,3.284c-1.9,1.117-5.367.474-9.024.576a1.693,1.693,0,0,0,1.236,1.033c.745.542,1.287.3,1.981.576,2.032.8,4.334.186,6.433.728a25.5,25.5,0,0,0,7.381-.271c2.556-.609,4.723-.508,7.28-1.083a23.16,23.16,0,0,1,8.634-.339,5.265,5.265,0,0,0,.728,0h.728a23.058,23.058,0,0,1,8.617.339c2.556.576,4.723.474,7.28,1.084a25.6,25.6,0,0,0,7.4.271c2.1-.542,4.4,0,6.433-.728.694-.271,1.1-.254,1.93-.491.66-.508,1.1-.762,1.27-1.117C95.063,50.3,91.677,50.941,89.73,49.823Z" transform="translate(4.958 10.396)" fill="#fff"/>
        <path id="Tracé_882" data-name="Tracé 882" d="M94.759,50.433a12.1,12.1,0,0,1-5.892-.609A36.349,36.349,0,0,1,84.5,46.539c-3.386-2.743-7.4-6.67-12.528-7.161A9.277,9.277,0,0,0,65.86,40.41c-.948.626-1.27,1.05-1.608,1.2h0c-.322-.152-.643-.576-1.693-1.2a9.244,9.244,0,0,0-6.112-1.033c-5.079.491-9.108,4.419-12.511,7.161a37.939,37.939,0,0,1-4.385,3.284c-1.439.846-3.809.677-6.45.593-.711.237-.576.846.169,1.456a.665.665,0,0,1,.474.135c2.032.8,4.334.186,6.433.728,2.489.169,4.859,2.252,7.178,1.693s4.723-.491,7.28-1.067c2.946-.66,5.841-2.743,8.837-2.319a5.266,5.266,0,0,0,.728,0h.728c3-.423,5.468,1.693,8.465,2.319,2.556.576,4.723.457,7.28,1.067s5.079-1.524,7.6-1.693c2.065-.525,4.334,0,6.349-.694C95.741,51.211,95.487,50.551,94.759,50.433Z" transform="translate(5.82 10.396)" fill="#fff"/>
        <path id="Tracé_883" data-name="Tracé 883" d="M51.853,50.55c-3.267-.152-5.959.457-5.993,1.371s2.573,1.693,5.841,1.9,5.959-.474,5.993-1.371S55.121,50.685,51.853,50.55Z" transform="translate(14.985 18.219)" fill="#f37e85" opacity="0.75"/>
        <path id="Tracé_884" data-name="Tracé 884" d="M47.694,40.25c-1.439,0-2.624.643-2.624,1.456s1.185,1.439,2.624,1.439,2.624-.643,2.624-1.439S49.133,40.25,47.694,40.25Z" transform="translate(14.438 11.098)" fill="#f37e85" opacity="0.75"/>
        <path id="Tracé_885" data-name="Tracé 885" d="M55.309,40.25c-1.134,0-2.049.525-2.049,1.151s.914,1.151,2.049,1.151,2.048-.508,2.048-1.151S56.443,40.25,55.309,40.25Z" transform="translate(20.114 11.098)" fill="#f37e85" opacity="0.75"/>
        <path id="Tracé_886" data-name="Tracé 886" d="M57.226,39.91c-.559,0-1.016.254-1.016.576s.457.576,1.016.576,1.033-.254,1.033-.576S57.8,39.91,57.226,39.91Z" transform="translate(22.158 10.862)" fill="#f37e85" opacity="0.75"/>
      </g>
    </g>
  </g>
</svg>
