<svg id="Fichier_7" data-name="Fichier 7" xmlns="http://www.w3.org/2000/svg" xmlns:xlink="http://www.w3.org/1999/xlink" width="98.053" height="99.354" viewBox="0 0 98.053 99.354">
  <defs>
    <clipPath id="clip-path">
      <circle id="Ellipse_305" data-name="Ellipse 305" cx="49.027" cy="49.027" r="49.027" fill="none"/>
    </clipPath>
  </defs>
  <g id="Calque_2" data-name="Calque 2">
    <g id="Layer_1" data-name="Layer 1">
      <g id="Groupe_145" data-name="Groupe 145" clip-path="url(#clip-path)">
        <path id="Tracé_887" data-name="Tracé 887" d="M76.674,66.684V65.81A4.267,4.267,0,0,0,76.674,66.684Z" transform="translate(3.281 1.136)" fill="#fbc7b2"/>
        <path id="Tracé_888" data-name="Tracé 888" d="M76.51,62.48v0Z" transform="translate(3.253 0.477)" fill="#fbc7b2"/>
        <path id="Tracé_889" data-name="Tracé 889" d="M76.582,64.817V64.05A5.455,5.455,0,0,0,76.582,64.817Z" transform="translate(3.264 0.788)" fill="#fbc7b2"/>
        <path id="Tracé_890" data-name="Tracé 890" d="M87.212,68.677c-.12-1.94-.2-3.893-.252-5.833v-.359C76.192,72.594,64.023,79.876,56.608,79.876S37.024,72.57,26.267,62.46A119.924,119.924,0,0,1,23.74,85.386,49,49,0,0,0,89.3,84.668a103.884,103.884,0,0,1-2.084-15.991Z" transform="translate(-7.186 0.473)" fill="#1078ad"/>
        <path id="Tracé_891" data-name="Tracé 891" d="M87.26,69.407v-.731l-.072-1.33V62.484c-11,10.11-23.166,17.392-30.58,17.392S37.024,72.57,26.267,62.46A119.924,119.924,0,0,1,23.74,85.386a49.11,49.11,0,0,0,16.578,9.583c8.289-.755,16.913-2.575,22.435-4.791C74.36,85.53,78.576,78.523,87.26,69.407Z" transform="translate(-7.186 0.473)" fill="#00395a"/>
        <path id="Tracé_892" data-name="Tracé 892" d="M28.865,72.881C39.621,82.99,51.8,90.273,59.205,90.273S78.79,82.966,89.546,72.857h0a89.1,89.1,0,0,0,17.476-22.112A49.039,49.039,0,0,0,10.61,49.212C14.671,57.477,21.4,65.849,28.865,72.881Z" transform="translate(-9.784 -9.923)" fill="#1078ad"/>
        <path id="Tracé_893" data-name="Tracé 893" d="M61.381,24.84a4.791,4.791,0,0,1-1.893,3.785c-1.964,1.33-6.384.838-6.384.838s-4.42.491-6.384-.838a4.791,4.791,0,0,1-1.893-3.785c-2.4.2-3.593,3.222-1.749,6.313,1.2,1.976,4.971,2.144,7.546,2a48.676,48.676,0,0,1,4.947,0c2.575.144,6.384,0,7.558-2C64.951,28.062,63.765,25.032,61.381,24.84Z" transform="translate(-3.539 -6.969)" fill="#fff"/>
        <path id="Tracé_894" data-name="Tracé 894" d="M72.593,47.71a26.892,26.892,0,0,1-3.09-2.623c-2.4-2.2-5.234-5.354-8.864-5.75a5.989,5.989,0,0,0-4.324.826c-.635.479-.874.815-1.09.946-.228-.132-.467-.467-1.1-.946a5.989,5.989,0,0,0-4.324-.826c-3.593.4-6.444,3.593-8.864,5.75a26.891,26.891,0,0,1-3.09,2.623c-1.342.886-3.8-.5-6.384-.419.467,1.114,6.324,2.252,9.439,7.055,4.348,6.732,12.529,6.432,14.374,6.324,1.785.108,9.966.407,14.374-6.324,3.1-4.791,8.972-5.989,9.427-7.055C76.426,47.207,73.947,48.6,72.593,47.71ZM59.417,51.148a23.418,23.418,0,0,1-4.2.623,23.262,23.262,0,0,1-4.2-.623,45.409,45.409,0,0,1-5.067-1.653c3.306-.419,5.989-2.971,9.271-4.025,3.246,1.054,5.989,3.593,9.259,4.025a44.426,44.426,0,0,1-5.043,1.653Z" transform="translate(-5.659 -4.122)" fill="#fff"/>
        <path id="Tracé_895" data-name="Tracé 895" d="M72.667,46.727a25.718,25.718,0,0,1-3.09-2.324c-2.4-1.94-5.234-4.719-8.864-5.067a6.564,6.564,0,0,0-4.324.731c-.671.443-.9.743-1.138.85h0c-.228-.108-.455-.407-1.2-.85a6.54,6.54,0,0,0-4.324-.731c-3.593.347-6.444,3.126-8.852,5.067a26.844,26.844,0,0,1-3.1,2.324c-1.342.791-3.8.335-6.384.407a1.2,1.2,0,0,0,.874.731c.527.383.91.216,1.4.407,1.437.563,3.066.132,4.552.515A18.04,18.04,0,0,0,43.44,48.6c1.809-.431,3.342-.359,5.151-.767a16.386,16.386,0,0,1,6.109-.24,3.725,3.725,0,0,0,.515,0h.515a16.314,16.314,0,0,1,6.1.24c1.809.407,3.342.335,5.151.767a18.111,18.111,0,0,0,5.234.192c1.485-.383,3.114,0,4.552-.515.491-.192.779-.18,1.366-.347.467-.359.779-.539.9-.791C76.44,47.062,74.044,47.518,72.667,46.727Z" transform="translate(-5.673 -4.121)" fill="#fff"/>
        <path id="Tracé_896" data-name="Tracé 896" d="M76.589,47.158a8.564,8.564,0,0,1-4.168-.431A25.717,25.717,0,0,1,69.33,44.4c-2.4-1.94-5.234-4.719-8.864-5.067a6.564,6.564,0,0,0-4.324.731c-.671.443-.9.743-1.138.85h0c-.228-.108-.455-.407-1.2-.85a6.54,6.54,0,0,0-4.324-.731c-3.593.347-6.444,3.126-8.852,5.067a26.844,26.844,0,0,1-3.1,2.324c-1.018.6-2.7.479-4.564.419-.5.168-.407.6.12,1.03a.47.47,0,0,1,.335.1c1.437.563,3.066.132,4.552.515,1.761.12,3.438,1.593,5.079,1.2s3.342-.347,5.151-.755c2.084-.467,4.132-1.94,6.253-1.641a3.725,3.725,0,0,0,.515,0h.515c2.12-.3,3.869,1.2,5.989,1.641,1.809.407,3.342.323,5.151.755s3.593-1.078,5.378-1.2c1.461-.371,3.066,0,4.492-.491C77.284,47.709,77.1,47.242,76.589,47.158Z" transform="translate(-5.427 -4.121)" fill="#fff"/>
        <path id="Tracé_897" data-name="Tracé 897" d="M50.1,50.543c-2.312-.108-4.216.323-4.24.97s1.821,1.2,4.132,1.342,4.216-.335,4.24-.97S52.412,50.639,50.1,50.543Z" transform="translate(-2.81 -1.887)" fill="#f37e85" opacity="0.75"/>
        <path id="Tracé_898" data-name="Tracé 898" d="M46.927,40.25c-1.018,0-1.857.455-1.857,1.03s.838,1.018,1.857,1.018,1.857-.455,1.857-1.018S47.945,40.25,46.927,40.25Z" transform="translate(-2.967 -3.92)" fill="#f37e85" opacity="0.75"/>
        <path id="Tracé_899" data-name="Tracé 899" d="M54.709,40.25c-.8,0-1.449.371-1.449.815s.647.815,1.449.815,1.449-.359,1.449-.815S55.512,40.25,54.709,40.25Z" transform="translate(-1.347 -3.92)" fill="#f37e85" opacity="0.75"/>
        <path id="Tracé_900" data-name="Tracé 900" d="M56.929,39.91c-.4,0-.719.18-.719.407s.323.407.719.407.731-.18.731-.407S57.336,39.91,56.929,39.91Z" transform="translate(-0.763 -3.987)" fill="#f37e85" opacity="0.75"/>
      </g>
      <path id="Tracé_901" data-name="Tracé 901" d="M29.5,101.015h9.032c1.4,0,2.779,0,4.192.12a3.03,3.03,0,0,0,3.138-1.485c.922-1.389,1.773-2.863,2.551-4.324a66.227,66.227,0,0,0,3.965-9.7,78.828,78.828,0,0,1,4.42-10.169c.563-1.066,1.4-3.1.12-3.977a3.593,3.593,0,0,0-4.12.551,18.984,18.984,0,0,0-3.15,3.486,13.607,13.607,0,0,0-1.581,3.965c-.3-4.288-.491-8.588-.695-12.889-.108-2.156-.216-4.3-.335-6.444a55.1,55.1,0,0,0-.419-6.289c-.24-1.318-.85-3.007-2.4-3.007-1.821,0-2.468,1.605-2.647,3.162-.467,4.12-.084,8.385-.192,12.565q0,2.839-.216,5.678c-.084,1.593-.431,1.342-.479-.084,0-1.737-.132-3.462-.2-5.2a13.044,13.044,0,0,0-.623-4.672A2.192,2.192,0,0,0,37.2,60.888c-1.09.383-1.533,1.689-1.761,2.719a24.209,24.209,0,0,0-.455,4.791c0,1.509.276,3.593-.252,5.043-1.126-2.4.91-11.894-3.593-11.343-2,.24-2.168,2.683-2.264,4.252-.156,2.24.252,4.791-.467,6.935-.731-2.144.455-7.63-2.4-8.564-3.845-1.2-3.1,6.887-3.066,8.684.108,4.791-.24,9.583.731,14.374a34.737,34.737,0,0,0,2.2,6.971c.467,1.1.994,2.18,1.557,3.234.359.671,1.282,3.09,2.156,3.09" transform="translate(-7.36 -1.823)" fill="#fff"/>
    </g>
  </g>
</svg>
