<svg id="Calque_2" data-name="Calque 2" xmlns="http://www.w3.org/2000/svg" width="132.034" height="132.034" viewBox="0 0 132.034 132.034">
  <g id="Layer_1" data-name="Layer 1">
    <path id="Tracé_871" data-name="Tracé 871" d="M81.556,15.53a66.017,66.017,0,1,0,66,66A66.017,66.017,0,0,0,81.556,15.53Zm0,1.644a64.354,64.354,0,0,1,63.289,76.014c-2.261-4.634-5.475-11.978-6.671-14.837a6.914,6.914,0,0,0-5.9-4.242H104.707c-3.457,0-7.194,4.522-7.829,9.53a22.068,22.068,0,0,1-4.522,9.679,10.333,10.333,0,0,1,7.773,5.157l16.929,36.718c-1.532,1.009-3.083,1.962-4.709,2.84-3.532-7.867-14.519-32.233-16.425-35.671a6.409,6.409,0,0,0-5.606-3.868H62.29a6.465,6.465,0,0,0-5.381,4.167L42.876,132.933c-1.514-1.14-2.971-2.336-4.372-3.606l13.323-28.421a12.071,12.071,0,0,1,8.427-7.624v-.747A23.824,23.824,0,0,1,55.956,81H30.9a6.222,6.222,0,0,0-4.914,3.326L19.5,98.626A64.372,64.372,0,0,1,81.556,17.174Zm55.5,90.981,1.663,2.9c-.467.916-.972,1.869-1.476,2.709ZM58.254,141.6c-1.289-.5-2.541-1.046-3.737-1.626l3.737-7.885Zm36.83-9.586,5.269,11.081c-1.7.523-3.42.953-5.157,1.327Z" transform="translate(-15.52 -15.53)" fill="#1078ad"/>
    <path id="Tracé_872" data-name="Tracé 872" d="M36.651,61.6A13.641,13.641,0,1,0,23.01,47.961,13.641,13.641,0,0,0,36.651,61.6Z" transform="translate(-9.014 0.791)" fill="#1078ad"/>
    <circle id="Ellipse_300" data-name="Ellipse 300" cx="15.378" cy="15.378" r="15.378" transform="translate(39.183 64.414) rotate(-45)" fill="#1078ad"/>
    <circle id="Ellipse_301" data-name="Ellipse 301" cx="15.378" cy="15.378" r="15.378" transform="translate(81.655 39.951) rotate(-45)" fill="#1078ad"/>
  </g>
</svg>
