<svg id="Calque_2" data-name="Calque 2" xmlns="http://www.w3.org/2000/svg" xmlns:xlink="http://www.w3.org/1999/xlink" width="146.938" height="146.938" viewBox="0 0 146.938 146.938">
  <defs>
    <clipPath id="clip-path">
      <circle id="Ellipse_294" data-name="Ellipse 294" cx="73.469" cy="73.469" r="73.469" fill="none"/>
    </clipPath>
  </defs>
  <g id="Layer_1" data-name="Layer 1">
    <g id="Groupe_141" data-name="Groupe 141" clip-path="url(#clip-path)">
      <path id="Tracé_870" data-name="Tracé 870" d="M63.989,77.659l-5.067-7.7C58.592,71,58.3,71.88,58,72.783c-.5,1.562-1.024,3.106-1.492,4.668A7.514,7.514,0,0,1,55.225,80a6.212,6.212,0,0,1-4.408,2.325A7.722,7.722,0,0,1,46.15,80.9c-4.251-2.551-8.5-4.98-12.685-7.583l-8.676-5.206a6.542,6.542,0,0,1-2.846-3.193,6.2,6.2,0,0,1-.382-3.471,6.351,6.351,0,0,1,3.228-4.46A6.577,6.577,0,0,1,28.1,56.28a7.791,7.791,0,0,1,3.956,1.492L41.2,63.239l5.206,3.054a2.151,2.151,0,0,0,.486.226c.243-.694.469-1.336.677-1.978l1.093-3.384,1.215-4.321c.5-1.527.972-3.071,1.51-4.581s1.111-2.967,1.735-4.425a6.665,6.665,0,0,1,.9-1.562,23.826,23.826,0,0,1,5.345-5.05,12.824,12.824,0,0,1,4.807-1.944,9.457,9.457,0,0,1,6.663,1.44,11.314,11.314,0,0,1,3.471,3.019,21.067,21.067,0,0,1,1.44,2.412c1.319,2.412,2.655,4.824,3.922,7.253,1.44,2.724,2.846,5.466,4.251,8.225,1.006,2,2.03,3.974,3,5.987s2.065,4.373,3.019,6.577,1.735,3.939,2.62,5.952,1.544,4.043,2.239,6.091a27.872,27.872,0,0,1,1.128,3.852,14.63,14.63,0,0,1,.278,4.356,27.762,27.762,0,0,1-.659,4.3,11.939,11.939,0,0,1-3.089,5.536c-.226,1.735-.434,3.471-.659,5.05-.174,1.232-.382,2.464-.573,3.713-.087.59-.121,1.2-.208,1.735-.191,1.406-.434,2.828-.625,4.251s-.382,3.158-.607,4.72-.416,2.707-.59,4.061-.4,3.158-.607,4.737c-.156,1.145-.312,2.308-.451,3.471a8.485,8.485,0,0,0,0,1.145v27.07a8.676,8.676,0,0,1-.486,3.228,7.444,7.444,0,0,1-3.158,3.714,7.1,7.1,0,0,1-3.9,1.076,7.462,7.462,0,0,1-6.82-4.72,8.676,8.676,0,0,1-.677-3.106V136.866a38.783,38.783,0,0,1,.451-4.2,15.024,15.024,0,0,1,.3-2.134c.208-1.44.434-2.863.642-4.3s.382-3.158.607-4.737.4-2.655.59-3.991a14.9,14.9,0,0,0,.139-2.343c-.416,1.145-.833,2.308-1.232,3.471-.5,1.406-.972,2.829-1.475,4.251l-1.475,4.113c-.469,1.319-.9,2.655-1.44,3.974a13.344,13.344,0,0,0-.937,4.512c-.1,3.089-.26,6.178-.382,9.266,0,2.065-.1,4.13-.191,6.195-.121,4.494-.347,8.971-.521,13.483a9.266,9.266,0,0,1-.416,2.915,7.392,7.392,0,0,1-4.061,4.321,7.7,7.7,0,0,1-1.839.538H60.709a6.663,6.663,0,0,1-5.969-3.089,7.132,7.132,0,0,1-1.3-5.345v-.729c.121-3.106.26-6.195.4-9.284v-1.145c.121-2.828.243-5.657.382-8.485v-.868c.121-2.915.26-5.831.382-8.676a9.456,9.456,0,0,0,0-1.215,10.255,10.255,0,0,1,.746-4.13c.486-1.44.868-2.915,1.319-4.356s.954-3.037,1.423-4.546l1.51-4.494c.469-1.475.954-2.933,1.406-4.408s.954-3.019,1.44-4.529.92-2.9,1.388-4.338c.33-.989.677-1.961.954-2.933a5.205,5.205,0,0,0,.1-1.267,4.23,4.23,0,0,0,0-.469c-.1-2.586-.191-5.206-.295-7.739-.139-3.228-.278-6.455-.434-9.683C64.11,79.481,64.041,78.6,63.989,77.659ZM53.369,13.193A18.134,18.134,0,0,0,27.34,19.232,17.561,17.561,0,0,0,25.726,33.5a17.353,17.353,0,0,0,4.841,7.843,4.234,4.234,0,0,1,.451-.711,2.985,2.985,0,0,1,2.447-.989A1.822,1.822,0,0,1,35.2,42.155a16.693,16.693,0,0,1-.937,1.839,18.135,18.135,0,0,0,19.105-30.8ZM21.96,49.634a.46.46,0,0,1-.191.312,2.343,2.343,0,0,0-.573,3.644,2.655,2.655,0,0,0,3.609.833A5.918,5.918,0,0,0,25.847,53.3c2,1.059,3.037.469,3.7-.364a2.724,2.724,0,0,0-.416-3.939,6.834,6.834,0,0,1,.33-.625c.694-1.163,1.406-2.325,2.1-3.471a2.308,2.308,0,0,0,.174-.486h-.139a.45.45,0,0,0-.3.208l-3.228,4.946.191.33.451-.208a1.891,1.891,0,0,1,0,2.551c-.954,1.215-2.1,1.041-3.3.364a3.194,3.194,0,0,0-.208.312,1.874,1.874,0,0,1-2.186,1.024A2.429,2.429,0,0,1,21.2,52.2h0c-.4-1.128.469-1.735,1.163-2.377l-.451-.347Zm.087-.087a7.114,7.114,0,0,1-.4-1.267,2.238,2.238,0,0,1,1.2-1.961,2.134,2.134,0,0,1,2.395.312l-.191.5a.92.92,0,0,0,1.024-.191c1.093-.972,2.221-1.909,3.332-2.881l.92-.816-.1-.174a2.36,2.36,0,0,0-.486.191l-1.145.92L25.9,46.3l-.174-.121a2.533,2.533,0,0,0-2.672-1.041A2.481,2.481,0,0,0,21.11,47.43a2.082,2.082,0,0,0,.92,2.134Zm9.475-2.377a14.906,14.906,0,0,0-.347,5.206,8.676,8.676,0,0,0,.347-5.275ZM21.318,52.2l.573.5h.121a1.735,1.735,0,0,1,.469-2.013.555.555,0,0,0-.312,0,1.631,1.631,0,0,0-.833,1.544Zm1.093-3.228a4.2,4.2,0,0,1,0-1.041,3.922,3.922,0,0,1,.434-.9l-.121-.1-.729.642c0,.555-.243,1.128.434,1.406Zm0,0Z" transform="translate(15.122 7.37)" fill="#1078ad"/>
    </g>
  </g>
</svg>
