<svg id="Calque_2" data-name="Calque 2" xmlns="http://www.w3.org/2000/svg" xmlns:xlink="http://www.w3.org/1999/xlink" width="159" height="159" viewBox="0 0 159 159">
  <defs>
    <clipPath id="clip-path">
      <circle id="Ellipse_293" data-name="Ellipse 293" cx="79.5" cy="79.5" r="79.5" fill="none"/>
    </clipPath>
  </defs>
  <g id="Layer_1" data-name="Layer 1">
    <g id="Groupe_140" data-name="Groupe 140" transform="translate(0)" clip-path="url(#clip-path)">
      <path id="Tracé_869" data-name="Tracé 869" d="M101.926,118.025H87.863a170.351,170.351,0,0,0-2.227-18.337,1.185,1.185,0,0,0-1.8-.844,4.508,4.508,0,0,0-1.114.97c1.652,3.412,2.712,48.24,2.712,48.24H41.778v-37.59L73.154,99.688a9.392,9.392,0,1,0-6.412-17.656c-4.885,1.8-10.362,3.989-12.122,4.779a20.994,20.994,0,0,0-4.9,2.892l.467.9,17.96-6.448A6.843,6.843,0,0,1,76.71,87.87h0a6.843,6.843,0,0,1-4.005,9.16L31,111.685c-9.77-.575-6.735-10.327-6.735-10.327S41.06,73.466,42.676,72.317a6.5,6.5,0,0,1,2.909-1.275H57.08a20.187,20.187,0,0,0,16.846,0H84.882C102.159,82.3,101.926,118.025,101.926,118.025ZM45.783,50.873A19.864,19.864,0,1,1,65.647,70.736,19.864,19.864,0,0,1,45.783,50.873ZM57.493,59.4a1.365,1.365,0,0,0,1.8.539c7.417-4.221,13.326-2.856,15.912-1.8a1.652,1.652,0,0,0,2.1-.88h0a1.652,1.652,0,0,0-1.06-2.3,22.935,22.935,0,0,0-18.3,2.712A1.293,1.293,0,0,0,57.493,59.4ZM47.759,27.076s2.766-8.549-4.185-12.015a3.43,3.43,0,0,0-4.382,3.071s7.382,5.8,8.567,9.016ZM23.818,23.5C20.136,26.411,23.1,29.2,23.1,29.2H39.264C35.025,23.645,27.572,20.574,23.818,23.5ZM31.289,37.69c-5.119.431-3.79,6-1.455,5.693s7.453-2.622,10.237-2.622a12.231,12.231,0,0,0-8.711-3.071ZM69.005,23.915a.7.7,0,0,0,.79,0c6.232-4.221,9.806.5,10.884,2.3a.665.665,0,0,0,.952.216l.413-.269a.7.7,0,0,0,.18-.97c-5.388-7.615-11.261-3.969-13.236-2.371a.665.665,0,0,0,.036,1.1Zm.9,2.963a.7.7,0,0,0,.126,1.149.682.682,0,0,0,.844-.126c3.179-3.466,6.25-.593,7.382.718a.682.682,0,0,0,1.006,0h0a.7.7,0,0,0,.233-.988,6.124,6.124,0,0,0-9.573-.754Z" transform="translate(17.489 11.879)" fill="#1078ad"/>
    </g>
  </g>
</svg>
