<svg id="Calque_2" data-name="Calque 2" xmlns="http://www.w3.org/2000/svg" width="95.38" height="116.598" viewBox="0 0 95.38 116.598">
  <g id="Layer_1" data-name="Layer 1">
    <path id="Tracé_902" data-name="Tracé 902" d="M120.73,89.9a70.456,70.456,0,0,1-95.38-4.632s9.617-22.211,10.991-25.417a10.568,10.568,0,0,1,8.807-5.971c3.664-.106,53.617,0,53.617,0a11.784,11.784,0,0,1,9.353,6.711Z" transform="translate(-25.35 10.306)" fill="#1078ad"/>
    <path id="Tracé_903" data-name="Tracé 903" d="M40.366,25.25a28.182,28.182,0,1,0,48.527.088L80.614,42a4.333,4.333,0,0,0-.176,1.55c0,.81.211,11.52-.123,13.862a15.853,15.853,0,0,1-4.65,3.646c-3.241,1.761-6.13,3.628-9.441,3.857a14.443,14.443,0,0,1-9.529-2.307,64.115,64.115,0,0,1-7.38-5.636s-.37-12.03-.211-14.584Z" transform="translate(-16.922 -11.457)" fill="#1078ad"/>
    <path id="Tracé_904" data-name="Tracé 904" d="M85.938,29.909a28.182,28.182,0,0,0-46.818,0l9.318,17.209s.546.934,2.1,0a72.85,72.85,0,0,0,7.75-4.333,8.014,8.014,0,0,1,9.212.405,24.184,24.184,0,0,0,7.38,4.139c.986.176,1.62.3,1.99-.106S85.938,29.909,85.938,29.909Z" transform="translate(-14.866 -17.419)" fill="#1078ad"/>
  </g>
</svg>
