<svg id="Calque_2" data-name="Calque 2" xmlns="http://www.w3.org/2000/svg" width="104.866" height="104.866" viewBox="0 0 104.866 104.866">
  <g id="Layer_1" data-name="Layer 1">
    <path id="Tracé_871" data-name="Tracé 871" d="M67.968,15.53a52.433,52.433,0,1,0,52.418,52.423A52.433,52.433,0,0,0,67.968,15.53Zm0,1.306a51.112,51.112,0,0,1,50.266,60.373c-1.8-3.681-4.348-9.513-5.3-11.784a5.491,5.491,0,0,0-4.69-3.369H86.356c-2.746,0-5.714,3.592-6.218,7.569a17.527,17.527,0,0,1-3.592,7.688,8.207,8.207,0,0,1,6.174,4.1l13.446,29.162c-1.217.8-2.449,1.558-3.74,2.256-2.8-6.248-11.531-25.6-13.045-28.331a5.09,5.09,0,0,0-4.452-3.072H52.667a5.135,5.135,0,0,0-4.274,3.31L37.247,108.775c-1.2-.905-2.36-1.855-3.473-2.864L44.356,83.338a9.587,9.587,0,0,1,6.693-6.055v-.594a18.922,18.922,0,0,1-3.413-9.157h-19.9a4.942,4.942,0,0,0-3.9,2.642l-5.15,11.353A51.127,51.127,0,0,1,67.968,16.836ZM112.045,89.1l1.321,2.3c-.371.727-.772,1.484-1.172,2.152ZM49.461,115.662c-1.024-.4-2.018-.831-2.968-1.291l2.968-6.263Zm29.251-7.613,4.185,8.8c-1.351.416-2.716.757-4.1,1.054Z" transform="translate(-15.52 -15.53)" fill="#1078ad"/>
    <path id="Tracé_872" data-name="Tracé 872" d="M33.844,55.988A10.834,10.834,0,1,0,23.01,45.154,10.834,10.834,0,0,0,33.844,55.988Z" transform="translate(-11.894 -6.434)" fill="#1078ad"/>
    <circle id="Ellipse_300" data-name="Ellipse 300" cx="12.214" cy="12.214" r="12.214" transform="translate(31.121 51.16) rotate(-45)" fill="#1078ad"/>
    <circle id="Ellipse_301" data-name="Ellipse 301" cx="12.214" cy="12.214" r="12.214" transform="translate(64.853 31.731) rotate(-45)" fill="#1078ad"/>
  </g>
</svg>
