<svg id="Calque_2" data-name="Calque 2" xmlns="http://www.w3.org/2000/svg" width="144.539" height="91.104" viewBox="0 0 144.539 91.104">
  <g id="Layer_1" data-name="Layer 1" transform="translate(0)">
    <path id="Tracé_911" data-name="Tracé 911" d="M56.553,67.488s-8.859,4.354-12.1-2.5A8.991,8.991,0,0,1,47.334,53.84L68.7,39.19c-2.006-1.117-3.691-3.483-15.332,2.991s-17.32-.909-17.32-.909L22.5,75.343,33.46,86.7a8.2,8.2,0,0,1,9.01-1.666c4.183,1.458,4.41,6.871,4.41,6.871l6.852-6.038a11.187,11.187,0,0,1,7.023-.3c3.786,1.136,4.713,7.571,4.713,7.571s5.679-2.8,9.464.416,2.347,9.464,2.347,9.464c10.165,1.76,6.947,11.357,6.947,11.357a5,5,0,0,0,5.849-.681c2.631-2.555.757-6.739.757-6.739L80.081,94.878c-.871-2.839,2.139-2.839,2.139-2.839l13.932,14.651a5.963,5.963,0,0,0,2.5,1.23c6.928-.322,5.243-7.571,5.243-7.571L91.306,86.738a2.309,2.309,0,0,1,2.555-3.161l15.332,16.2c6.852,1.741,7.174-4.051,7.174-4.051L78.737,56.206Z" transform="translate(-4.182 -30.56)" fill="#1078ad"/>
    <rect id="Rectangle_1113" data-name="Rectangle 1113" width="12.985" height="10.184" rx="2.62" transform="translate(25.737 63.622) rotate(-45)" fill="#1078ad"/>
    <rect id="Rectangle_1114" data-name="Rectangle 1114" width="21.749" height="10.146" rx="2.62" transform="translate(37.841 70.043) rotate(-42.26)" fill="#1078ad"/>
    <path id="Tracé_912" data-name="Tracé 912" d="M59,69.595h0a5.073,5.073,0,0,0-7.174-.341L40.794,79.211a5.1,5.1,0,0,0,6.833,7.571l10.96-9.975A5.073,5.073,0,0,0,59,69.595Z" transform="translate(10.65 -3.688)" fill="#1078ad"/>
    <path id="Tracé_913" data-name="Tracé 913" d="M53.006,75.372,47.516,80.88a5.113,5.113,0,0,0,7.231,7.231l5.508-5.489a5.13,5.13,0,1,0-7.25-7.25Z" transform="translate(16.818 1.495)" fill="#1078ad"/>
    <rect id="Rectangle_1115" data-name="Rectangle 1115" width="44.274" height="15.446" rx="1.15" transform="matrix(0.364, -0.931, 0.931, 0.364, 0, 41.233)" fill="#1078ad"/>
    <path id="Tracé_914" data-name="Tracé 914" d="M90.926,44.2c-5.83-3.5-13.25-8.65-19.364-7.117s-20.935,10.9-24.1,12.947a114.388,114.388,0,0,0-11.187,8.461,7,7,0,0,0-.473,6.587,5.224,5.224,0,0,0,6.133,1.4c1.628-.7,24.38-12.133,24.38-12.133s2.555-.53,3.615.984,35.586,37.63,35.586,37.63,11.149-7.78,14.518-15.559L101.791,43.706a9.843,9.843,0,0,1-10.865.492Z" transform="translate(7.157 -31.481)" fill="#1078ad"/>
    <rect id="Rectangle_1116" data-name="Rectangle 1116" width="15.54" height="44.501" rx="1.83" transform="translate(110.015 7.551) rotate(-27.84)" fill="#1078ad"/>
  </g>
</svg>
