<svg id="cough-svgrepo-com" xmlns="http://www.w3.org/2000/svg" width="110.327" height="104.827" viewBox="0 0 110.327 104.827">
  <g id="Groupe_103" data-name="Groupe 103" transform="translate(0 60.224)">
    <g id="Groupe_93" data-name="Groupe 93" transform="translate(7.898 7.424)">
      <path id="Tracé_443" data-name="Tracé 443" d="M10.446,92.472a.82.82,0,0,1-.24-1.605l16.513-5.036A.82.82,0,0,1,27.2,87.4L10.685,92.435A.786.786,0,0,1,10.446,92.472Z" transform="translate(-9.625 -85.793)" fill="#1078ad"/>
    </g>
    <g id="Groupe_94" data-name="Groupe 94" transform="translate(7.602 1.58)">
      <path id="Tracé_444" data-name="Tracé 444" d="M25.99,81.551l-.065,0-15.9-1.239a.821.821,0,1,1,.128-1.636l15.9,1.239a.821.821,0,0,1-.063,1.639Z" transform="translate(-9.264 -78.671)" fill="#1078ad"/>
    </g>
    <g id="Groupe_95" data-name="Groupe 95" transform="translate(12.808 12.853)">
      <path id="Tracé_445" data-name="Tracé 445" d="M16.43,103.955a.821.821,0,0,1-.51-1.464l12.507-9.9a.821.821,0,0,1,1.019,1.287l-12.507,9.9A.814.814,0,0,1,16.43,103.955Z" transform="translate(-15.609 -92.41)" fill="#1078ad"/>
    </g>
    <g id="Groupe_96" data-name="Groupe 96" transform="translate(6.262 5.616)">
      <circle id="Ellipse_276" data-name="Ellipse 276" cx="0.822" cy="0.822" r="0.822" fill="#1078ad"/>
    </g>
    <g id="Groupe_97" data-name="Groupe 97" transform="translate(18.238 11.636)">
      <circle id="Ellipse_277" data-name="Ellipse 277" cx="0.822" cy="0.822" r="0.822" fill="#1078ad"/>
    </g>
    <g id="Groupe_98" data-name="Groupe 98" transform="translate(0 24.274)">
      <circle id="Ellipse_278" data-name="Ellipse 278" cx="0.822" cy="0.822" r="0.822" fill="#1078ad"/>
    </g>
    <g id="Groupe_99" data-name="Groupe 99" transform="translate(19.882 27.183)">
      <circle id="Ellipse_279" data-name="Ellipse 279" cx="0.822" cy="0.822" r="0.822" fill="#1078ad"/>
    </g>
    <g id="Groupe_100" data-name="Groupe 100" transform="translate(27.575 15.545)">
      <circle id="Ellipse_280" data-name="Ellipse 280" cx="0.822" cy="0.822" r="0.822" fill="#1078ad"/>
    </g>
    <g id="Groupe_101" data-name="Groupe 101" transform="translate(20.704 5.616)">
      <circle id="Ellipse_281" data-name="Ellipse 281" cx="0.822" cy="0.822" r="0.822" fill="#1078ad"/>
    </g>
    <g id="Groupe_102" data-name="Groupe 102" transform="translate(19.06)">
      <circle id="Ellipse_282" data-name="Ellipse 282" cx="0.822" cy="0.822" r="0.822" fill="#1078ad"/>
    </g>
  </g>
  <g id="Groupe_104" data-name="Groupe 104" transform="translate(26.136)">
    <path id="Tracé_446" data-name="Tracé 446" d="M103.556,76.908c1.678-5.645,13.881-21.661,12.355-39.966S104.165,4.146,80.828,3.384s-36,12.051-38.746,22.729-3.2,9-1.678,14.186-7.989,13.274-8.542,18.915c-.284,2.9,5.465,3.514,5.465,3.514a26.084,26.084,0,0,1-.7,4.979,9.182,9.182,0,0,1,3.1-.315c3.631.183,4.709.851,4.927,2.256.224,1.446-1.095,2.355-2.52,3.094a45.66,45.66,0,0,1-4.662,1.6s1.549,11.542,4.2,12.541a15.232,15.232,0,0,0,8.8.752,11.333,11.333,0,0,1,4.028-.071c1.845.412,4.612,3.011,4.612,3.011-.079-.081-.583-.722,0,0,2.154,2.667,1.333,4.41,2.641,17.606h43.168S101.876,82.553,103.556,76.908Z" transform="translate(-31.852 -3.351)" fill="#1078ad"/>
  </g>
</svg>
