<svg id="Calque-2" xmlns="http://www.w3.org/2000/svg" width="79.433" height="50.067" viewBox="0 0 79.433 50.067">
  <g id="Layer_1" data-name="Layer 1" transform="translate(0)">
    <path id="Tracé_911" data-name="Tracé 911" d="M41.214,54.131s-4.868,2.393-6.647-1.373a4.941,4.941,0,0,1,1.581-6.127l11.744-8.052c-1.1-.614-2.028-1.914-8.426,1.644s-9.518-.5-9.518-.5L22.5,58.448l6.023,6.242a4.5,4.5,0,0,1,4.952-.915c2.3.8,2.424,3.776,2.424,3.776l3.766-3.318a6.148,6.148,0,0,1,3.859-.166c2.081.624,2.59,4.161,2.59,4.161s3.121-1.54,5.2.229,1.29,5.2,1.29,5.2c5.586.967,3.818,6.242,3.818,6.242a2.746,2.746,0,0,0,3.214-.374c1.446-1.4.416-3.7.416-3.7l-5.909-6.637c-.479-1.56,1.175-1.56,1.175-1.56l7.656,8.052a3.277,3.277,0,0,0,1.373.676c3.807-.177,2.882-4.161,2.882-4.161L60.313,64.71a1.269,1.269,0,0,1,1.4-1.737l8.426,8.9c3.766.957,3.943-2.226,3.943-2.226l-20.68-21.72Z" transform="translate(-12.433 -33.837)" fill="#1078ad"/>
    <rect id="Rectangle_1113" data-name="Rectangle 1113" width="7.136" height="5.597" rx="2.62" transform="translate(14.144 34.964) rotate(-45)" fill="#1078ad"/>
    <rect id="Rectangle_1114" data-name="Rectangle 1114" width="11.952" height="5.576" rx="2.62" transform="translate(20.796 38.493) rotate(-42.26)" fill="#1078ad"/>
    <path id="Tracé_912" data-name="Tracé 912" d="M50.043,68.845h0a2.788,2.788,0,0,0-3.943-.187L40.036,74.13a2.8,2.8,0,0,0,3.755,4.161l6.023-5.482a2.788,2.788,0,0,0,.229-3.963Z" transform="translate(-11.764 -32.625)" fill="#1078ad"/>
    <path id="Tracé_913" data-name="Tracé 913" d="M49.859,74.635l-3.017,3.027a2.81,2.81,0,0,0,3.974,3.974l3.027-3.017a2.819,2.819,0,1,0-3.984-3.984Z" transform="translate(-11.486 -32.391)" fill="#1078ad"/>
    <rect id="Rectangle_1115" data-name="Rectangle 1115" width="24.331" height="8.488" rx="1.15" transform="matrix(0.364, -0.931, 0.931, 0.364, 0, 22.66)" fill="#1078ad"/>
    <path id="Tracé_914" data-name="Tracé 914" d="M65.825,40.867c-3.2-1.924-7.282-4.754-10.642-3.911s-11.505,5.992-13.242,7.115a62.863,62.863,0,0,0-6.148,4.65,3.849,3.849,0,0,0-.26,3.62,2.871,2.871,0,0,0,3.37.77c.895-.385,13.4-6.668,13.4-6.668s1.4-.291,1.987.541,19.557,20.68,19.557,20.68,6.127-4.275,7.979-8.551L71.8,40.6a5.409,5.409,0,0,1-5.971.27Z" transform="translate(-11.922 -33.878)" fill="#1078ad"/>
    <rect id="Rectangle_1116" data-name="Rectangle 1116" width="8.54" height="24.456" rx="1.83" transform="translate(60.46 4.15) rotate(-27.84)" fill="#1078ad"/>
  </g>
</svg>
