<svg id="Calque_2" data-name="Calque 2" xmlns="http://www.w3.org/2000/svg" width="60.341" height="73.227" viewBox="0 0 60.341 73.227">
  <g id="Layer_1" data-name="Layer 1">
    <path id="Tracé_905" data-name="Tracé 905" d="M75,26.84V24.07H71.91V19.58h3.87a1.67,1.67,0,0,0,0-3.34H64.06a1.67,1.67,0,0,0,0,3.34h4.21v4.49H64.88V27l-6.55.09c-6.65.58-6.65,5.69-6.65,5.69v4.73h5.86V34a1.33,1.33,0,0,1,1.26-1.14l7.47-.08a4.285,4.285,0,0,0,7.8-.08l8.06-.09V26.74Z" transform="translate(-21.789 -16.24)" fill="#1078ad"/>
    <path id="Tracé_906" data-name="Tracé 906" d="M33,57.6c4.28.43,4.48,6.89,4.48,6.89S42.81,52.11,43.29,51s1.64-3.61,3.86-3.71A4.29,4.29,0,0,1,50.62,49a3.85,3.85,0,0,1,3.32-2.38,4.26,4.26,0,0,1,3.74,1.89h2.51c3.2-2.83-.41-4.6-.41-4.6L41,44.18c-2,11-10.76,9.53-10.76,9.53-.91-.71.24-1.3.24-1.3,8.9.19,9.09-9.14,9.09-9.14.88-.43,5.12-3.84,7.66-5.92A2.29,2.29,0,0,0,47.4,34l-.06-.06a2.31,2.31,0,0,0-3-.29l-11.15,7.7A13.07,13.07,0,0,0,21.8,54C21.46,61.07,29,65.74,29,65.74,28.34,61.62,28.7,57.17,33,57.6Z" transform="translate(-21.789 -16.24)" fill="#1078ad"/>
    <path id="Tracé_907" data-name="Tracé 907" d="M64.55,66.05a5.22,5.22,0,0,0-1.38.18l1.59-3.49a2.463,2.463,0,0,0-4.48-2.05L55.56,70.93c-1.13.07-.76-1-.76-1L60.65,57a2.33,2.33,0,0,0-4.23-1.94L50.63,67.6a.74.74,0,0,1-1.11-.6l7.11-15.59a2.31,2.31,0,0,0-1-3h0a2.3,2.3,0,0,0-3.18,1.07L45.34,65.11c-1.15.58-1.08-.75-1.08-.75l5.42-12.19a2.271,2.271,0,1,0-4.13-1.89L37.8,66.7a2.19,2.19,0,0,0-.17,1.3l.66,3.54a.46.46,0,0,1-.38.33.85.85,0,0,1-1-.71l-1.72-9.91a2.44,2.44,0,0,0-4.83.64c.22,2.33.52,5.51.56,6,.08.83.61,11.64.61,11.64C33.87,87.9,40.37,90,46.18,89.36s9.61-7,9.61-7l.78-1.69a4,4,0,0,0,1.7.37,4.11,4.11,0,0,0,4.12-4.12,3.549,3.549,0,0,0,0-.46,5.34,5.34,0,0,0,2.19.46,5.44,5.44,0,0,0,0-10.88ZM61.24,76.91a3,3,0,0,1-3,3,2.94,2.94,0,0,1-1.22-.27l2.47-5.4a2.621,2.621,0,0,1,.51.3,5.1,5.1,0,0,0,.86,1A2.91,2.91,0,0,1,61.24,76.91Zm3.31-1.52a3.91,3.91,0,0,1-3.91-3.62l1.58-3.46a3.86,3.86,0,0,1,2.33-.77,3.93,3.93,0,1,1,0,7.85Z" transform="translate(-21.789 -16.24)" fill="#1078ad"/>
    <path id="Tracé_908" data-name="Tracé 908" d="M58.27,52.22h1.4c1.54,0,2.34,2.3,2.34,2.3h1.41A2.1,2.1,0,0,0,65,52.37a2.74,2.74,0,0,0-1.51-2.46h-5.2Z" transform="translate(-21.789 -16.24)" fill="#1078ad"/>
    <path id="Tracé_909" data-name="Tracé 909" d="M68.37,56.31a1.46,1.46,0,1,0-1.46,1.46A1.46,1.46,0,0,0,68.37,56.31Z" transform="translate(-21.789 -16.24)" fill="#1078ad"/>
    <circle id="Ellipse_307" data-name="Ellipse 307" cx="2.98" cy="2.98" r="2.98" transform="translate(47.541 40.15)" fill="#1078ad"/>
    <path id="Tracé_910" data-name="Tracé 910" d="M74.51,64.13a2.1,2.1,0,1,0,2.1,2.1,2.1,2.1,0,0,0-2.1-2.1Z" transform="translate(-21.789 -16.24)" fill="#1078ad"/>
  </g>
</svg>
