<svg id="Calque3" xmlns="http://www.w3.org/2000/svg" width="61.266" height="74.895" viewBox="0 0 61.266 74.895">
  <g id="Layer_1" data-name="Layer 1">
    <path id="Tracé_902" data-name="Tracé 902" d="M86.616,77A45.256,45.256,0,0,1,25.35,74.025S31.527,59.758,32.41,57.7a6.788,6.788,0,0,1,5.657-3.835c2.353-.068,34.44,0,34.44,0a7.569,7.569,0,0,1,6.008,4.311Z" transform="translate(-25.35 -12.634)" fill="#1078ad"/>
    <path id="Tracé_903" data-name="Tracé 903" d="M38.954,25.25a18.1,18.1,0,1,0,31.17.057l-5.318,10.7a2.783,2.783,0,0,0-.113,1c0,.52.136,7.4-.079,8.9a10.183,10.183,0,0,1-2.987,2.342c-2.082,1.131-3.937,2.331-6.064,2.478a9.278,9.278,0,0,1-6.121-1.482A41.183,41.183,0,0,1,44.7,45.627s-.238-7.728-.136-9.368Z" transform="translate(-23.895 -16.39)" fill="#1078ad"/>
    <path id="Tracé_904" data-name="Tracé 904" d="M69.193,25.442a18.1,18.1,0,0,0-30.073,0L45.105,36.5s.351.6,1.346,0a46.8,46.8,0,0,0,4.978-2.783,5.148,5.148,0,0,1,5.917.26,15.534,15.534,0,0,0,4.741,2.659c.634.113,1.041.192,1.278-.068S69.193,25.442,69.193,25.442Z" transform="translate(-23.541 -17.419)" fill="#1078ad"/>
  </g>
</svg>
