<svg id="cough-svgrepo-com" xmlns="http://www.w3.org/2000/svg" width="76" height="72.211" viewBox="0 0 76 72.211">
  <g id="Groupe_103" data-name="Groupe 103" transform="translate(0 41.486)">
    <g id="Groupe_93" data-name="Groupe 93" transform="translate(5.441 5.114)">
      <path id="Tracé_443" data-name="Tracé 443" d="M10.19,90.394a.565.565,0,0,1-.165-1.106L21.4,85.819a.565.565,0,0,1,.33,1.081L10.355,90.369A.542.542,0,0,1,10.19,90.394Z" transform="translate(-9.625 -85.793)" fill="#1078ad"/>
    </g>
    <g id="Groupe_94" data-name="Groupe 94" transform="translate(5.236 1.088)">
      <path id="Tracé_444" data-name="Tracé 444" d="M20.786,80.655l-.045,0L9.785,79.8a.565.565,0,0,1,.088-1.127l10.956.854a.565.565,0,0,1-.044,1.129Z" transform="translate(-9.264 -78.671)" fill="#1078ad"/>
    </g>
    <g id="Groupe_95" data-name="Groupe 95" transform="translate(8.823 8.854)">
      <path id="Tracé_445" data-name="Tracé 445" d="M16.175,100.363a.565.565,0,0,1-.352-1.008l8.615-6.822a.565.565,0,0,1,.7.886l-8.615,6.822A.561.561,0,0,1,16.175,100.363Z" transform="translate(-15.609 -92.41)" fill="#1078ad"/>
    </g>
    <g id="Groupe_96" data-name="Groupe 96" transform="translate(4.313 3.869)">
      <circle id="Ellipse_276" data-name="Ellipse 276" cx="0.566" cy="0.566" r="0.566" fill="#1078ad"/>
    </g>
    <g id="Groupe_97" data-name="Groupe 97" transform="translate(12.564 8.016)">
      <circle id="Ellipse_277" data-name="Ellipse 277" cx="0.566" cy="0.566" r="0.566" fill="#1078ad"/>
    </g>
    <g id="Groupe_98" data-name="Groupe 98" transform="translate(0 16.721)">
      <circle id="Ellipse_278" data-name="Ellipse 278" cx="0.566" cy="0.566" r="0.566" fill="#1078ad"/>
    </g>
    <g id="Groupe_99" data-name="Groupe 99" transform="translate(13.696 18.726)">
      <circle id="Ellipse_279" data-name="Ellipse 279" cx="0.566" cy="0.566" r="0.566" fill="#1078ad"/>
    </g>
    <g id="Groupe_100" data-name="Groupe 100" transform="translate(18.995 10.709)">
      <circle id="Ellipse_280" data-name="Ellipse 280" cx="0.566" cy="0.566" r="0.566" fill="#1078ad"/>
    </g>
    <g id="Groupe_101" data-name="Groupe 101" transform="translate(14.262 3.869)">
      <circle id="Ellipse_281" data-name="Ellipse 281" cx="0.566" cy="0.566" r="0.566" fill="#1078ad"/>
    </g>
    <g id="Groupe_102" data-name="Groupe 102" transform="translate(13.13)">
      <circle id="Ellipse_282" data-name="Ellipse 282" cx="0.566" cy="0.566" r="0.566" fill="#1078ad"/>
    </g>
  </g>
  <g id="Groupe_104" data-name="Groupe 104" transform="translate(18.004)">
    <path id="Tracé_446" data-name="Tracé 446" d="M81.246,54.022C82.4,50.133,90.808,39.1,89.757,26.491S81.665,3.9,65.589,3.374s-24.8,8.3-26.69,15.657-2.206,6.2-1.156,9.772-5.5,9.144-5.884,13.03c-.2,2,3.765,2.421,3.765,2.421a17.968,17.968,0,0,1-.48,3.43,6.325,6.325,0,0,1,2.138-.217c2.5.126,3.244.586,3.394,1.554.154,1-.754,1.622-1.736,2.132a31.454,31.454,0,0,1-3.212,1.1s1.067,7.951,2.9,8.639a10.493,10.493,0,0,0,6.06.518,7.807,7.807,0,0,1,2.775-.049,9.975,9.975,0,0,1,3.177,2.074c-.054-.056-.4-.5,0,0,1.484,1.837.919,3.038,1.82,12.128H82.19S80.089,57.91,81.246,54.022Z" transform="translate(-31.852 -3.351)" fill="#1078ad"/>
  </g>
</svg>
