<svg id="Fichier7" xmlns="http://www.w3.org/2000/svg" xmlns:xlink="http://www.w3.org/1999/xlink" width="68.582" height="69.491" viewBox="0 0 68.582 69.491">
  <defs>
    <clipPath id="clip-path">
      <circle id="Ellipse_305" data-name="Ellipse 305" cx="34.291" cy="34.291" r="34.291" fill="none"/>
    </clipPath>
  </defs>
  <g id="Calque_2" data-name="Calque 2">
    <g id="Layer_1" data-name="Layer 1">
      <g id="Groupe_145" data-name="Groupe 145" clip-path="url(#clip-path)">
        <path id="Tracé_887" data-name="Tracé 887" d="M76.667,66.422V65.81A2.984,2.984,0,0,0,76.667,66.422Z" transform="translate(-20.744 -18.986)" fill="#fbc7b2"/>
        <path id="Tracé_888" data-name="Tracé 888" d="M76.51,62.48v0Z" transform="translate(-20.721 -18.446)" fill="#fbc7b2"/>
        <path id="Tracé_889" data-name="Tracé 889" d="M76.578,64.586V64.05A3.817,3.817,0,0,0,76.578,64.586Z" transform="translate(-20.731 -18.7)" fill="#fbc7b2"/>
        <path id="Tracé_890" data-name="Tracé 890" d="M68.135,66.808c-.084-1.357-.142-2.723-.176-4.08v-.251c-7.532,7.071-16.044,12.165-21.23,12.165s-13.7-5.111-21.221-12.182A83.879,83.879,0,0,1,23.74,78.5a34.274,34.274,0,0,0,45.852-.5,72.659,72.659,0,0,1-1.458-11.185Z" transform="translate(-12.162 -18.442)" fill="#1078ad"/>
        <path id="Tracé_891" data-name="Tracé 891" d="M68.168,67.319v-.511l-.05-.93v-3.4c-7.691,7.071-16.2,12.165-21.389,12.165s-13.7-5.111-21.221-12.182A83.879,83.879,0,0,1,23.74,78.5a34.35,34.35,0,0,0,11.6,6.7,61.027,61.027,0,0,0,15.692-3.351C59.145,78.6,62.094,73.695,68.168,67.319Z" transform="translate(-12.162 -18.442)" fill="#00395a"/>
        <path id="Tracé_892" data-name="Tracé 892" d="M23.378,53.952C30.9,61.023,39.422,66.116,44.6,66.116s13.7-5.111,21.221-12.182h0A62.316,62.316,0,0,0,78.044,38.469,34.3,34.3,0,0,0,10.61,37.4,60.833,60.833,0,0,0,23.378,53.952Z" transform="translate(-10.032 -9.917)" fill="#1078ad"/>
        <path id="Tracé_893" data-name="Tracé 893" d="M55.61,24.84a3.351,3.351,0,0,1-1.324,2.647c-1.374.93-4.465.586-4.465.586s-3.091.343-4.465-.586a3.351,3.351,0,0,1-1.324-2.647c-1.676.142-2.513,2.254-1.223,4.415.838,1.382,3.477,1.5,5.278,1.4a34.047,34.047,0,0,1,3.46,0c1.8.1,4.465,0,5.286-1.4C58.106,27.094,57.277,24.974,55.61,24.84Z" transform="translate(-15.153 -12.34)" fill="#fff"/>
        <path id="Tracé_894" data-name="Tracé 894" d="M60.23,45.162a18.809,18.809,0,0,1-2.162-1.835c-1.676-1.542-3.661-3.745-6.2-4.021a4.189,4.189,0,0,0-3.024.578c-.444.335-.612.57-.762.662-.159-.092-.327-.327-.771-.662a4.189,4.189,0,0,0-3.024-.578c-2.513.276-4.507,2.513-6.2,4.021a18.809,18.809,0,0,1-2.162,1.835c-.938.62-2.656-.352-4.465-.293.327.779,4.424,1.575,6.6,4.935,3.041,4.708,8.763,4.5,10.054,4.424,1.248.075,6.97.285,10.054-4.424,2.17-3.351,6.275-4.189,6.593-4.935C62.911,44.81,61.177,45.782,60.23,45.162Zm-9.216,2.4A16.379,16.379,0,0,1,48.073,48a16.27,16.27,0,0,1-2.941-.436,31.762,31.762,0,0,1-3.544-1.156c2.312-.293,4.189-2.078,6.485-2.815,2.27.737,4.189,2.513,6.476,2.815a31.072,31.072,0,0,1-3.527,1.156Z" transform="translate(-13.414 -14.675)" fill="#fff"/>
        <path id="Tracé_895" data-name="Tracé 895" d="M60.26,44.476A17.988,17.988,0,0,1,58.1,42.85c-1.676-1.357-3.661-3.3-6.2-3.544a4.591,4.591,0,0,0-3.024.511c-.469.31-.628.519-.8.595h0c-.159-.075-.318-.285-.838-.595a4.574,4.574,0,0,0-3.024-.511c-2.513.243-4.507,2.187-6.191,3.544a18.775,18.775,0,0,1-2.17,1.625c-.938.553-2.656.235-4.465.285a.838.838,0,0,0,.612.511c.369.268.637.151.98.285,1.005.394,2.145.092,3.184.36a12.618,12.618,0,0,0,3.653-.134c1.265-.3,2.337-.251,3.6-.536a11.461,11.461,0,0,1,4.273-.168,2.605,2.605,0,0,0,.36,0h.36a11.411,11.411,0,0,1,4.264.168c1.265.285,2.337.235,3.6.536a12.667,12.667,0,0,0,3.661.134c1.039-.268,2.178,0,3.184-.36.343-.134.545-.126.955-.243.327-.251.545-.377.628-.553C62.9,44.71,61.224,45.029,60.26,44.476Z" transform="translate(-13.403 -14.675)" fill="#fff"/>
        <path id="Tracé_896" data-name="Tracé 896" d="M63.378,44.777a5.99,5.99,0,0,1-2.916-.3A17.988,17.988,0,0,1,58.3,42.85c-1.676-1.357-3.661-3.3-6.2-3.544a4.591,4.591,0,0,0-3.024.511c-.469.31-.628.519-.8.595h0c-.159-.075-.318-.285-.838-.595a4.574,4.574,0,0,0-3.024-.511c-2.513.243-4.507,2.187-6.191,3.544a18.776,18.776,0,0,1-2.17,1.625,6.662,6.662,0,0,1-3.192.293c-.352.117-.285.419.084.721a.329.329,0,0,1,.235.067c1.005.394,2.145.092,3.184.36,1.232.084,2.4,1.114,3.552.838s2.337-.243,3.6-.528c1.458-.327,2.89-1.357,4.373-1.148a2.605,2.605,0,0,0,.36,0h.36c1.483-.209,2.706.838,4.189,1.148,1.265.285,2.337.226,3.6.528s2.513-.754,3.762-.838c1.022-.26,2.145,0,3.142-.343C63.864,45.163,63.738,44.836,63.378,44.777Z" transform="translate(-13.604 -14.675)" fill="#fff"/>
        <path id="Tracé_897" data-name="Tracé 897" d="M48.826,50.538c-1.617-.075-2.949.226-2.966.679s1.273.838,2.89.938,2.949-.235,2.966-.679S50.443,50.6,48.826,50.538Z" transform="translate(-15.75 -16.507)" fill="#f37e85" opacity="0.75"/>
        <path id="Tracé_898" data-name="Tracé 898" d="M46.369,40.25c-.712,0-1.3.318-1.3.721s.586.712,1.3.712,1.3-.318,1.3-.712S47.081,40.25,46.369,40.25Z" transform="translate(-15.622 -14.84)" fill="#f37e85" opacity="0.75"/>
        <path id="Tracé_899" data-name="Tracé 899" d="M54.274,40.25c-.561,0-1.014.26-1.014.57s.452.57,1.014.57,1.014-.251,1.014-.57S54.835,40.25,54.274,40.25Z" transform="translate(-16.95 -14.84)" fill="#f37e85" opacity="0.75"/>
        <path id="Tracé_900" data-name="Tracé 900" d="M56.713,39.91c-.276,0-.5.126-.5.285s.226.285.5.285.511-.126.511-.285S57,39.91,56.713,39.91Z" transform="translate(-17.429 -14.785)" fill="#f37e85" opacity="0.75"/>
      </g>
      <path id="Tracé_901" data-name="Tracé 901" d="M27.5,85.937h6.317c.98,0,1.944,0,2.932.084a2.12,2.12,0,0,0,2.2-1.039c.645-.972,1.24-2,1.784-3.024A46.322,46.322,0,0,0,43.5,75.171,55.135,55.135,0,0,1,46.6,68.058c.394-.746.98-2.17.084-2.781a2.513,2.513,0,0,0-2.882.385,13.278,13.278,0,0,0-2.2,2.438,9.517,9.517,0,0,0-1.106,2.773c-.209-3-.343-6.007-.486-9.015-.075-1.508-.151-3.008-.235-4.507a38.536,38.536,0,0,0-.293-4.4c-.168-.922-.595-2.1-1.676-2.1-1.273,0-1.726,1.123-1.852,2.212-.327,2.882-.059,5.865-.134,8.788q0,1.986-.151,3.971c-.059,1.114-.3.938-.335-.059,0-1.215-.092-2.421-.142-3.636a9.124,9.124,0,0,0-.436-3.267,1.533,1.533,0,0,0-1.86-.989c-.762.268-1.072,1.181-1.232,1.9a16.932,16.932,0,0,0-.318,3.351,11.3,11.3,0,0,1-.176,3.527c-.788-1.676.637-8.319-2.513-7.934-1.4.168-1.516,1.877-1.583,2.974-.109,1.567.176,3.351-.327,4.851-.511-1.5.318-5.337-1.676-5.99-2.689-.838-2.17,4.817-2.145,6.074.075,3.351-.168,6.7.511,10.054a24.3,24.3,0,0,0,1.542,4.876c.327.771.7,1.525,1.089,2.262.251.469.9,2.161,1.508,2.161" transform="translate(-12.019 -16.559)" fill="#fff"/>
    </g>
  </g>
</svg>
