<svg xmlns="http://www.w3.org/2000/svg" xmlns:xlink="http://www.w3.org/1999/xlink" width="395.171" height="291.796" viewBox="0 0 395.171 291.796">
  <defs>
    <linearGradient id="linear-gradient" x1="0.5" y1="1" x2="0.5" gradientUnits="objectBoundingBox">
      <stop offset="0" stop-color="gray" stop-opacity="0.251"/>
      <stop offset="0.54" stop-color="gray" stop-opacity="0.122"/>
      <stop offset="1" stop-color="gray" stop-opacity="0.102"/>
    </linearGradient>
    <linearGradient id="linear-gradient-2" x1="0.5" y1="1" x2="0.5" y2="0" xlink:href="#linear-gradient"/>
  </defs>
  <g id="Groupe_18" data-name="Groupe 18" transform="translate(-0.005 -0.003)">
    <path id="Tracé_319" data-name="Tracé 319" d="M90.98,356.76H125.3v46.779H93.489c-.081.484-.162.964-.254,1.447H125.3v37.72a.483.483,0,0,1-.159-.061q-1.353-.538-2.705-1.14c-.193-.088-.382-.179-.578-.264q-1.353-.639-2.705-1.353c-.315-.166-.629-.338-.937-.514a56.283,56.283,0,0,1-13.493-10.5c-.118-.112-.227-.233-.338-.338-.548-.6-1.086-1.2-1.606-1.813-.2-.227-.386-.457-.578-.676-.615-.751-1.211-1.529-1.786-2.31-.088-.118-.169-.233-.254-.338a49.954,49.954,0,0,1-5.817-10.517c-.047-.112-.091-.233-.135-.338-.467-1.184-.889-2.384-1.255-3.608-.156-.511-.308-1.015-.436-1.545-.047-.152-.085-.308-.125-.46-1.9-7.49-2.12-15.275-2.12-23.023V381.2q.041-4.745.112-9.479.027-1.217.051-2.445.071-3.108.2-6.229c.02-.575.047-1.153.078-1.725q.02-.5.051-.994Q90.855,358.532,90.98,356.76Z" transform="translate(-64.813 -242.389)" fill="#1078ad" opacity="0.1"/>
    <path id="Tracé_320" data-name="Tracé 320" d="M157.006,156.187H138.18a143.3,143.3,0,0,1,10.013-13.777c2.8-3.436,5.749-6.784,8.813-10.01Z" transform="translate(-96.521 -93.901)" fill="#1078ad" opacity="0.1"/>
    <path id="Tracé_321" data-name="Tracé 321" d="M126.9,207v49.2H92.69c0-.142.02-.287.034-.429.03-.389.061-.774.095-1.163.034-.453.078-.906.122-1.353s.088-.987.142-1.478.1-.987.152-1.478.108-.981.169-1.468.115-.981.183-1.468c.051-.4.1-.808.159-1.214.078-.572.159-1.143.243-1.711a1.626,1.626,0,0,1,.041-.257,118,118,0,0,1,2.516-12.35,91.443,91.443,0,0,1,4.244-12.512A93.968,93.968,0,0,1,107.174,207Z" transform="translate(-66.415 -143.273)" fill="#1078ad" opacity="0.1"/>
    <path id="Tracé_322" data-name="Tracé 322" d="M218.09,132.931V179.71h73.3V132.931Zm0,48.226v40.175c.419.085.832.169,1.248.24.558.108,1.119.206,1.691.291l.338.047c.223.037.45.068.676.095.565.081,1.129.142,1.691.2.264.027.538.047.8.071l.653.047h0c.355.027.707.047,1.058.061.216,0,.433.017.653.024s.338,0,.514,0h1.88c.291,0,.582,0,.869-.027h.017a5.177,5.177,0,0,0,.605-.024,1.485,1.485,0,0,0,.172,0,4.076,4.076,0,0,0,.5-.02.7.7,0,0,1,.115,0c.375-.024.754-.054,1.136-.088s.744-.074,1.126-.115l.768-.095a67.346,67.346,0,0,0,9.283-1.975c6.841-1.907,13.527-4.575,20.365-6.527,8.833-2.519,18.6-3.76,27.135-.693V181.158Zm73.3-100.311V18.569a94.19,94.19,0,0,0-23.814,2.79c-18.562,4.663-35.231,14.778-49.488,27.7V80.843h3.689v1.444H218.09v49.2h73.3v-49.2h-54.52V80.84Zm94.174-21.038a30.346,30.346,0,0,1-13.29-3.862c-7.893-4.291-14.2-10.926-21.251-16.52a97.572,97.572,0,0,0-51.432-20.439V80.846H404.226l.26-.274Zm9.533-1.691,10.108,11.1V55.2A40.467,40.467,0,0,0,395.1,58.1Zm10.108,173.191V181.158H383.651c-.054-.213-.115-.429-.183-.646.064.216.122.433.179.646H299.592v36.265c.8.592,1.586,1.217,2.367,1.846h0q1.265,1.035,2.513,2.093l.839.693c.4.338.812.676,1.217,1q1.221.984,2.458,1.948.619.487,1.244.957a169.785,169.785,0,0,0,20.845,13.632c1.63.91,3.277,1.786,4.934,2.641q1.654.852,3.331,1.671,2.516,1.228,5.073,2.367h0a186.2,186.2,0,0,0,49.373,14.379q5.674.835,11.4,1.319V231.3h.338ZM299.592,82.287v49.2H405.206v-49.2Zm0,50.638V179.71H405.206V132.931ZM413.4,55.132V70.789L426.3,56.63Q419.89,55.571,413.4,55.132Zm0,77.8V179.71H516.123V132.931ZM515.761,235.018l.362-53.86H413.4v81.354a185.075,185.075,0,0,0,19.851-.24h.115q4.734-.3,9.425-.866h.071A173.309,173.309,0,0,0,491.3,248.467M535.94,140.615q-.585-1.353-1.2-2.705c-.764-1.691-1.569-3.334-2.4-4.974h-8.015V179.71h20.26c-.017-13.25-3.372-26.776-8.644-39.1Zm-11.616,40.543v46.329a66.3,66.3,0,0,0,14-18.883,65,65,0,0,0,6.246-27.449Zm0-61.858v12.174h7.264a132.262,132.262,0,0,0-7.264-12.174ZM454.66,64.313c-.534-.206-1.072-.413-1.61-.609A146.143,146.143,0,0,0,435.7,58.49L415.96,80.153h0l-.385.416.254.274h70.265a150.116,150.116,0,0,0-31.433-16.53Zm33.5,17.974H414.844L413.4,83.6v47.882H516.123v-23.2a146.256,146.256,0,0,0-27.967-26Z" transform="translate(-149.408 -18.56)" fill="#1078ad" opacity="0.1"/>
    <path id="Tracé_323" data-name="Tracé 323" d="M126.9,280.39v24.379H92.69c0-.142.02-.287.034-.429.03-.389.061-.774.095-1.163.034-.453.078-.906.122-1.353s.088-.987.142-1.478.1-.988.152-1.478.108-.981.169-1.468.115-.981.183-1.468c.051-.4.1-.808.159-1.214.078-.572.159-1.143.243-1.711a1.627,1.627,0,0,1,.041-.257,118,118,0,0,1,2.516-12.35Z" transform="translate(-66.415 -191.845)" fill="#1078ad" opacity="0.1"/>
    <path id="Tracé_324" data-name="Tracé 324" d="M90.98,356.76H125.3v46.779H93.489c-.081.484-.162.964-.254,1.447H125.3v37.72a.483.483,0,0,1-.159-.061q-1.353-.538-2.705-1.14c-.193-.088-.382-.179-.578-.264q-1.353-.639-2.705-1.353c-.315-.166-.629-.338-.937-.514a56.283,56.283,0,0,1-13.493-10.5c-.118-.112-.227-.233-.338-.338-.548-.6-1.086-1.2-1.606-1.813-.2-.227-.386-.457-.578-.676-.615-.751-1.211-1.529-1.786-2.31-.088-.118-.169-.233-.254-.338a49.954,49.954,0,0,1-5.817-10.517c-.047-.112-.091-.233-.135-.338-.467-1.184-.889-2.384-1.255-3.608-.156-.511-.308-1.015-.436-1.545-.047-.152-.085-.308-.125-.46-1.9-7.49-2.12-15.275-2.12-23.023V381.2q.041-4.745.112-9.479.027-1.217.051-2.445.071-3.108.2-6.229c.02-.575.047-1.153.078-1.725q.02-.5.051-.994Q90.855,358.532,90.98,356.76Z" transform="translate(-64.813 -242.389)" fill="#1078ad" opacity="0.1"/>
    <path id="Tracé_325" data-name="Tracé 325" d="M227.936,181.351V223.5H202.13v-42.15h3.679V167.08h15.1v14.271Z" transform="translate(-133.451 -110.576)" fill="#1078ad" opacity="0.1"/>
    <rect id="Rectangle_76" data-name="Rectangle 76" width="25.802" height="46.779" transform="translate(68.679 114.368)" fill="#1078ad" opacity="0.1"/>
    <path id="Tracé_326" data-name="Tracé 326" d="M218.09,499.37h25.8v38.89a66.829,66.829,0,0,1-9.283,1.972c-.257.037-.511.068-.768.095-.379.044-.754.085-1.129.118l-1.133.091h-.115l-.5.027h-.172c-.2,0-.4.024-.605.027h-.017c-.291,0-.578.02-.869.027h-2.394a5.337,5.337,0,0,1-.656-.027q-.521-.02-1.055-.061h0l-.653-.047c-.271-.02-.541-.047-.808-.074q-.852-.074-1.691-.193l-.676-.095-.338-.047c-.565-.085-1.126-.179-1.691-.287-.419-.074-.832-.159-1.248-.247Z" transform="translate(-149.408 -336.772)" fill="#1078ad" opacity="0.1"/>
    <rect id="Rectangle_77" data-name="Rectangle 77" width="21.278" height="47.124" transform="translate(234.517 65.797)" fill="#1078ad" opacity="0.1"/>
    <path id="Tracé_327" data-name="Tracé 327" d="M548.764,338.19v46.782H443.15V364.794H499.4v11.9h28.078V338.19Z" transform="translate(-292.965 -223.822)" fill="#1078ad" opacity="0.1"/>
    <path id="Tracé_328" data-name="Tracé 328" d="M565.049,548.267a1.919,1.919,0,0,1-.338-.02v30.689q-5.718-.47-11.4-1.315a186.441,186.441,0,0,1-49.393-14.372q-6.807-3.071-13.337-6.692a170.412,170.412,0,0,1-20.841-13.632q-2.5-1.907-4.917-3.9c-1.119-.927-2.228-1.873-3.358-2.79-.778-.632-1.566-1.258-2.367-1.853V498.106h84.056c-.061-.216-.115-.429-.176-.646.064.216.125.43.179.646h21.555v50.137C564.826,548.246,564.937,548.257,565.049,548.267Z" transform="translate(-308.916 -335.508)" fill="#1078ad" opacity="0.1"/>
    <path id="Tracé_329" data-name="Tracé 329" d="M908.375,169.192H894.51v-4.308h6.212V152.05q.808.3,1.61.609v12.225h6.04Z" transform="translate(-597.083 -106.906)" fill="#1078ad" opacity="0.1"/>
    <path id="Tracé_330" data-name="Tracé 330" d="M876.354,256.2H808.281a.043.043,0,0,0,.02,0H795.65V209.073h3.578V243.9h16.347V223.276h13.51V207H842.95v16.286h13.5v20.628h19.9Z" transform="translate(-531.654 -143.273)" fill="#1078ad" opacity="0.1"/>
    <path id="Tracé_331" data-name="Tracé 331" d="M795.65,356.76v46.779h80.708V356.76Zm102.6,101.84.115-37.03H876.358V405H795.65v81.34a185.09,185.09,0,0,0,19.851-.24h.115q4.734-.3,9.425-.866h.071A173.308,173.308,0,0,0,873.548,472.3" transform="translate(-531.654 -242.389)" fill="#1078ad" opacity="0.1"/>
    <path id="Tracé_332" data-name="Tracé 332" d="M1125.07,499.37H1143.9a65.031,65.031,0,0,1-6.246,27.446,66.263,66.263,0,0,1-14,18.887V515.944h1.42Z" transform="translate(-748.734 -336.772)" fill="#1078ad" opacity="0.1"/>
    <path id="Tracé_333" data-name="Tracé 333" d="M1146.69,418.576H1127.85v-39.1h10.2C1143.318,391.8,1146.673,405.326,1146.69,418.576Z" transform="translate(-751.514 -257.425)" fill="#1078ad" opacity="0.1"/>
    <rect id="Rectangle_78" data-name="Rectangle 78" width="11.4" height="14.775" transform="translate(244.399 78.897)" fill="#1078ad" opacity="0.1"/>
    <rect id="Rectangle_79" data-name="Rectangle 79" width="11.4" height="3.402" transform="translate(244.399 109.522)" fill="#1078ad" opacity="0.1"/>
    <rect id="Rectangle_80" data-name="Rectangle 80" width="11.4" height="9.925" transform="translate(244.399 114.368)" fill="#1078ad" opacity="0.1"/>
    <rect id="Rectangle_81" data-name="Rectangle 81" width="11.4" height="14.775" transform="translate(244.399 140.147)" fill="#1078ad" opacity="0.1"/>
    <rect id="Rectangle_82" data-name="Rectangle 82" width="11.4" height="14.775" transform="translate(244.399 170.771)" fill="#1078ad" opacity="0.1"/>
    <path id="Tracé_334" data-name="Tracé 334" d="M749.1,625.439a1.642,1.642,0,0,1,.338.024,1.9,1.9,0,0,1-.338-.02v3.432H737.7V614.1h11.4Z" transform="translate(-493.301 -412.704)" fill="#1078ad" opacity="0.1"/>
    <path id="Tracé_335" data-name="Tracé 335" d="M749.1,704.65v11.41q-5.722-.47-11.4-1.316V704.65Z" transform="translate(-493.301 -472.633)" fill="#1078ad" opacity="0.1"/>
    <rect id="Rectangle_83" data-name="Rectangle 83" width="48.855" height="1.086" transform="translate(150.185 160.065)" fill="#1078ad" opacity="0.1"/>
    <rect id="Rectangle_84" data-name="Rectangle 84" width="48.855" height="4.159" transform="translate(150.185 162.594)" fill="#1078ad" opacity="0.1"/>
    <rect id="Rectangle_85" data-name="Rectangle 85" width="48.855" height="6.689" transform="translate(150.185 180.389)" fill="#1078ad" opacity="0.1"/>
    <path id="Tracé_336" data-name="Tracé 336" d="M512.588,612.08v6.689H474.375q-2.5-1.9-4.917-3.9c-1.123-.923-2.232-1.87-3.358-2.786Z" transform="translate(-313.548 -411.367)" fill="#1078ad" opacity="0.1"/>
    <path id="Tracé_337" data-name="Tracé 337" d="M569.572,672.17v6.706h-4.034q-6.807-3.07-13.337-6.692Z" transform="translate(-370.532 -451.136)" fill="#1078ad" opacity="0.1"/>
    <rect id="Rectangle_86" data-name="Rectangle 86" width="9.618" height="9.618" transform="translate(283.846 118.903)" fill="#1078ad" opacity="0.1"/>
    <rect id="Rectangle_87" data-name="Rectangle 87" width="9.618" height="9.618" transform="translate(75.608 74.092)" fill="#1078ad" opacity="0.1"/>
    <rect id="Rectangle_88" data-name="Rectangle 88" width="9.618" height="9.618" transform="translate(75.608 96.431)" fill="#1078ad" opacity="0.1"/>
    <rect id="Rectangle_89" data-name="Rectangle 89" width="9.618" height="9.618" transform="translate(75.608 118.771)" fill="#1078ad" opacity="0.1"/>
    <rect id="Rectangle_90" data-name="Rectangle 90" width="9.618" height="9.618" transform="translate(75.608 141.107)" fill="#1078ad" opacity="0.1"/>
    <rect id="Rectangle_91" data-name="Rectangle 91" width="9.618" height="9.618" transform="translate(75.608 163.447)" fill="#1078ad" opacity="0.1"/>
    <rect id="Rectangle_92" data-name="Rectangle 92" width="9.618" height="9.618" transform="translate(75.608 185.786)" fill="#1078ad" opacity="0.1"/>
    <rect id="Rectangle_93" data-name="Rectangle 93" width="9.618" height="9.618" transform="translate(320.562 118.903)" fill="#1078ad" opacity="0.1"/>
    <rect id="Rectangle_94" data-name="Rectangle 94" width="9.618" height="9.618" transform="translate(283.846 142.625)" fill="#1078ad" opacity="0.1"/>
    <rect id="Rectangle_95" data-name="Rectangle 95" width="9.618" height="9.618" transform="translate(320.562 142.625)" fill="#1078ad" opacity="0.1"/>
    <rect id="Rectangle_96" data-name="Rectangle 96" width="9.618" height="9.618" transform="translate(283.846 166.345)" fill="#1078ad" opacity="0.1"/>
    <rect id="Rectangle_97" data-name="Rectangle 97" width="9.618" height="9.618" transform="translate(320.562 166.345)" fill="#1078ad" opacity="0.1"/>
    <rect id="Rectangle_98" data-name="Rectangle 98" width="9.618" height="9.618" transform="translate(283.846 190.067)" fill="#1078ad" opacity="0.1"/>
    <rect id="Rectangle_99" data-name="Rectangle 99" width="9.618" height="9.618" transform="translate(320.562 190.067)" fill="#1078ad" opacity="0.1"/>
    <rect id="Rectangle_100" data-name="Rectangle 100" width="9.618" height="9.618" transform="translate(283.846 213.79)" fill="#1078ad" opacity="0.1"/>
    <rect id="Rectangle_101" data-name="Rectangle 101" width="9.618" height="9.618" transform="translate(320.562 213.79)" fill="#1078ad" opacity="0.1"/>
    <path id="Tracé_338" data-name="Tracé 338" d="M838.4,708.532v-6.2h9.614v5.319Z" transform="translate(-554.554 -464.821)" fill="#1078ad" opacity="0.1"/>
    <path id="Tracé_339" data-name="Tracé 339" d="M96.53,316.91v5.5h32.911v-5.5Zm3.277,5.157H97.1v-4.809h2.705Zm3.277,0h-2.705v-4.809h2.705Zm3.27,0h-2.705v-4.809h2.705Zm3.277,0h-2.705v-4.809h2.705Zm3.273,0H110.2v-4.809H112.9Zm3.277,0h-2.705v-4.809h2.705Zm3.277,0h-2.705v-4.809h2.705Zm3.273,0h-2.705v-4.809h2.705Zm3.273,0H123.3v-4.809H126Zm3.277,0h-2.705v-4.809h2.705Z" transform="translate(-68.956 -216.015)" fill="#1078ad" opacity="0.1"/>
    <path id="Tracé_340" data-name="Tracé 340" d="M96.53,364.27v5.5h32.911v-5.5Zm3.277,5.157H97.1v-4.809h2.705Zm3.277,0h-2.705v-4.809h2.705Zm3.27,0h-2.705v-4.809h2.705Zm3.277,0h-2.705v-4.809h2.705Zm3.273,0H110.2v-4.809H112.9Zm3.277,0h-2.705v-4.809h2.705Zm3.277,0h-2.705v-4.809h2.705Zm3.273,0h-2.705v-4.809h2.705Zm3.273,0H123.3v-4.809H126Zm3.277,0h-2.705v-4.809h2.705Z" transform="translate(-68.956 -247.359)" fill="#1078ad" opacity="0.1"/>
    <path id="Tracé_341" data-name="Tracé 341" d="M96.53,411.64v5.5h32.911v-5.5Zm3.277,5.15H97.1v-4.809h2.705Zm3.277,0h-2.705v-4.809h2.705Zm3.27,0h-2.705v-4.809h2.705Zm3.277,0h-2.705v-4.809h2.705Zm3.273,0H110.2v-4.809H112.9Zm3.277,0h-2.705v-4.809h2.705Zm3.277,0h-2.705v-4.809h2.705Zm3.273,0h-2.705v-4.809h2.705Zm3.273,0H123.3v-4.809H126Zm3.277,0h-2.705v-4.809h2.705Z" transform="translate(-68.956 -278.71)" fill="#1078ad" opacity="0.1"/>
    <path id="Tracé_342" data-name="Tracé 342" d="M96.53,459v5.5h32.911V459Zm3.277,5.154H97.1v-4.816h2.705Zm3.277,0h-2.705v-4.816h2.705Zm3.27,0h-2.705v-4.816h2.705Zm3.277,0h-2.705v-4.816h2.705Zm3.273,0H110.2v-4.816H112.9Zm3.277,0h-2.705v-4.816h2.705Zm3.277,0h-2.705v-4.816h2.705Zm3.273,0h-2.705v-4.816h2.705Zm3.273,0H123.3v-4.816H126Zm3.277,0h-2.705v-4.816h2.705Z" transform="translate(-68.956 -310.054)" fill="#1078ad" opacity="0.1"/>
    <path id="Tracé_343" data-name="Tracé 343" d="M97,506.34c.129.521.281,1.035.436,1.545v-1.2h2.705v4.805H98.691c.041.115.085.233.132.338h30.943V506.34Zm6.425,5.154H100.72v-4.805h2.705Zm3.27,0H103.99v-4.805H106.7Zm3.277,0h-2.705v-4.805h2.705Zm3.273,0H110.54v-4.805h2.705Zm3.277,0h-2.705v-4.805h2.705Zm3.277,0h-2.705v-4.805H119.8Zm3.273,0h-2.705v-4.805h2.705Zm3.273,0h-2.705v-4.805h2.705Zm3.277,0h-2.705v-4.805h2.705Z" transform="translate(-69.267 -341.385)" fill="#1078ad" opacity="0.1"/>
    <path id="Tracé_344" data-name="Tracé 344" d="M119.54,553.7c.088.108.169.23.254.338h1.789v2.31l.578.676v-3h2.705v4.849h-1.113c.108.112.213.23.338.338h20.571V553.7Zm8.61,5.174h-2.705v-4.829h2.705Zm3.277,0h-2.705v-4.829h2.705Zm3.277,0H132v-4.829H134.7Zm3.273,0h-2.705v-4.829h2.705Zm3.273,0h-2.705v-4.829h2.705Zm3.277,0h-2.705v-4.829h2.705Z" transform="translate(-84.185 -372.729)" fill="#1078ad" opacity="0.1"/>
    <path id="Tracé_345" data-name="Tracé 345" d="M172.93,601.06c.311.176.626.338.94.511V601.4h2.705v1.525c.2.085.382.176.575.264V601.4h2.705v2.929a1.1,1.1,0,0,0,.159.057V601.06Z" transform="translate(-119.52 -404.074)" fill="#1078ad" opacity="0.1"/>
    <path id="Tracé_346" data-name="Tracé 346" d="M433.255,253.364Zm-20.831,99.811Zm-21.734-50.783c.064.216.122.433.179.646h0C390.818,302.825,390.757,302.609,390.689,302.392Zm42.566-49.028ZM229,202.727v1.441h15.106V202.72ZM412.427,353.175Zm-21.738-50.783c.064.216.122.433.179.646h0C390.818,302.825,390.757,302.609,390.689,302.392Zm42.566-49.028Zm-20.831,99.811Zm-21.734-50.783c.064.216.122.433.179.646h0C390.818,302.825,390.757,302.609,390.689,302.392Z" transform="translate(-156.628 -140.44)" fill="#1078ad" opacity="0.1"/>
    <ellipse id="Ellipse_31" data-name="Ellipse 31" cx="32.951" cy="5.292" rx="32.951" ry="5.292" transform="translate(264.77 281.214)" fill="#1078ad" opacity="0.1"/>
    <ellipse id="Ellipse_32" data-name="Ellipse 32" cx="32.951" cy="5.292" rx="32.951" ry="5.292" transform="translate(116.158 275.922)" fill="#1078ad" opacity="0.1"/>
    <path id="Tracé_347" data-name="Tracé 347" d="M453.107,330.492a.179.179,0,0,0-.051-.088c-.5-.5-6.929-9.584-6.929-9.584s-.338-1.015-.886-2.333a2.319,2.319,0,0,0,.389-.761,2.621,2.621,0,0,0,.064-.355c0-.037.027-.068.037-.1a2.567,2.567,0,0,0-.034-1.393,2.407,2.407,0,0,1-.139.338,5.656,5.656,0,0,0-.507-1.129c-.852-1.468-2.07-2.705-2.966-4.136a11.19,11.19,0,0,1-1.525-7.426c0,.132,0,.267,0,.4a11.576,11.576,0,0,1,.2-1.522,10.562,10.562,0,0,1,.565-1.671c.8-1.843,2.107-3.449,2.9-5.3a10.038,10.038,0,0,0,.6-1.938,10.855,10.855,0,0,0,.3-3.4,5.414,5.414,0,0,1-.085.808,11.007,11.007,0,0,0-3.108-7.328c-2.763-2.776-6.73-3.855-10.524-4.423a9.641,9.641,0,0,1-4.43-1.691,7.7,7.7,0,0,0-5.046-.964,8.322,8.322,0,0,0-5.137,2.54c-1.8,1.982-2.584,4.788-4.687,6.459a20.81,20.81,0,0,1-4.376,2.178,5.858,5.858,0,0,0-3.365,3.172v.054l-.02.054c-.494,1.752.46,3.534.957,5.282a21.405,21.405,0,0,1,.578,5.59c.037,2.286.071,4.575.034,6.865-.017.9-.047,1.809-.115,2.705a14.174,14.174,0,0,0-2.323.933,46.005,46.005,0,0,0-3.591,3.554l-5.543,21.176.074.085-.074.287.281-.064a28.533,28.533,0,0,0,5.658,4.755l.237,4.153a7.382,7.382,0,0,0,4.116,5.888c.088,1.444.362,7.308-.906,9.631a10.821,10.821,0,0,0-1.2,5.505,18.723,18.723,0,0,1-.061,5.377,8.793,8.793,0,0,0-.064,3.774h0v1.113c0,3.75.044,15.769,0,17.128-.064,1.606,0,25.363,0,25.363s-.314,11.873-1.322,15.089S400.336,449,400.336,449s-.632,12.685,1.6,15.187c0,.112-.02.227-.024.338v.159c-.027.964.159,1.988.987,2.3a14.15,14.15,0,0,1,4.349,3.155c.423.558,2.881,1.948,6.087,1.576a45.824,45.824,0,0,1,6.05-.277h0s1.265-.23.856-1.8h0a14.081,14.081,0,0,0-1.955-3.48c.129.034.254.061.372.085l.122.024h.095a1.3,1.3,0,0,0,.156,0h.068a1.161,1.161,0,0,0,.189,0h0c.849-.081,4.014,1.393,4.579,2.367s2.557,1.715,4.058,1.9a28.831,28.831,0,0,0,5.035-.318,18.545,18.545,0,0,0,2.82-.514c.446-.169.541-.71.413-1.319h0a3.433,3.433,0,0,0-1.17-1.975,9.5,9.5,0,0,1-1.806-2.252l-.142-.227c.944-.9,2.648-3.842,3.165-4.45.629-.741-1.015-27.825-1.015-27.825V418.081l2.519-12.85,1.762-6.8,1.512-10.267s2.645-11.992,1.829-13.168h0c0-.024-.676-12.37-1.386-15.336a33.622,33.622,0,0,1-.047-7.193,1.42,1.42,0,0,0,.338-1.481,3.074,3.074,0,0,0-.2-.5v-.156a23.288,23.288,0,0,1,4.555-1.549c2.519-.494,1.89-1.792,1.89-1.792s.568-1.113.944-1.792.064-6.679,0-7.173c-.024-.2-.179-1.3-.358-2.553.808-.575,1.86-1.288,3.006-1.965C453.777,332.209,453.286,330.847,453.107,330.492Zm-32.87,85.736s-1.89,4.822-1.133,6.057-.125,5.817-.125,5.817l-.632,6.8s-1.762,12.614-1.133,15.58c.494,2.327.676,9.276.734,12.174h0a.85.85,0,0,0-.125.061l-.085.044c.291-1.14.169-3.446-1.275-8.086l-.122-19.164s-.223-22.137,1.525-24.612,2.367-6.679,2.367-6.679-.379,6.063-.626,7.67A12.643,12.643,0,0,0,420.237,416.228Zm-3.52,47.635c-.017.041-.037.081-.051.118l-.095-.122A1,1,0,0,0,416.717,463.863Z" transform="translate(-266.062 -189.219)" fill="url(#linear-gradient)"/>
    <path id="Tracé_348" data-name="Tracé 348" d="M480.242,838.565a33.574,33.574,0,0,1-7.758.835c-1.481-.179-3.443-.93-4-1.911s-3.686-2.462-4.525-2.367a3.044,3.044,0,0,1-1.014-.142,12.489,12.489,0,0,1-1.691-.649,3.138,3.138,0,0,1,.037-1.285,2.063,2.063,0,0,1,.074-.25,2.235,2.235,0,0,1,1.136-1.265l.122-.057a3.442,3.442,0,0,1,.73-.223c2.658-.511,13.625.514,13.625.514s.308.551.73,1.234a9.439,9.439,0,0,0,1.786,2.266,3.466,3.466,0,0,1,1.153,1.988C480.776,837.852,480.682,838.4,480.242,838.565Z" transform="translate(-310.308 -556.326)" fill="#fff"/>
    <path id="Tracé_349" data-name="Tracé 349" d="M480.25,840.42a33.548,33.548,0,0,1-7.754.835c-1.481-.179-3.443-.933-4-1.911s-3.683-2.462-4.521-2.367a7.835,7.835,0,0,1-2.705-.791,2.8,2.8,0,0,1,.555-2.276l1.691,1.2s4.525,1.4,5.363,2.705,2.367,2.029,4.575,2.161a42.819,42.819,0,0,0,7.217-.856C480.785,839.706,480.693,840.254,480.25,840.42Z" transform="translate(-310.317 -558.181)" opacity="0.1"/>
    <path id="Tracé_350" data-name="Tracé 350" d="M435.835,840.53a45.032,45.032,0,0,0-5.972.281c-3.175.372-5.6-1.014-6.023-1.586a14.11,14.11,0,0,0-4.291-3.179c-.822-.318-1.015-1.353-.977-2.32v-.159a9.471,9.471,0,0,1,.271-1.816L432,831.47l1.14,1.546.176.237.693.943s.315.413.727,1.015a14.436,14.436,0,0,1,1.931,3.5h0C437.083,840.3,435.835,840.53,435.835,840.53Z" transform="translate(-282.09 -556.566)" fill="#fff"/>
    <path id="Tracé_351" data-name="Tracé 351" d="M435.835,844.957a45.022,45.022,0,0,0-5.972.281c-3.172.372-5.6-1.015-6.019-1.586a13.714,13.714,0,0,0-4.295-3.172c-.822-.318-1.015-1.353-.977-2.32.94.22,2.915.781,3.689,1.758,1.014,1.305,2.831,3.5,5.411,3.639,2.083.112,7.156-.26,9.016-.409C437.086,844.727,435.835,844.957,435.835,844.957Z" transform="translate(-282.09 -560.994)" opacity="0.1"/>
    <path id="Tracé_352" data-name="Tracé 352" d="M434.245,831.744c-.152,1.13-.622,1.434-.96,1.5a.656.656,0,0,1-.25,0,.845.845,0,0,1-.132-.02s-11.816,2.611-14.2.5a1.661,1.661,0,0,1-.169-.176,9.472,9.472,0,0,1,.271-1.816l13.158-.281L433.1,833a2.236,2.236,0,0,1,1.136-1.265Z" transform="translate(-282.065 -556.553)" opacity="0.1"/>
    <path id="Tracé_353" data-name="Tracé 353" d="M480.456,832.926c-.264.291-.484.457-.622.4-.622-.25-5.722-1.119-7.342-.372s-7.1.122-7.1.122,0-.649-.03-1.691a3.438,3.438,0,0,1,.73-.223c2.658-.511,13.625.514,13.625.514S480.037,832.243,480.456,832.926Z" transform="translate(-313.059 -556.267)" opacity="0.1"/>
    <path id="Tracé_354" data-name="Tracé 354" d="M454,576.349l-1.495,10.328-1.738,6.845-2.489,12.938v13.7s1.616,27.25.994,27.994-2.986,4.981-3.608,4.734-5.722-1.119-7.342-.375-7.1.125-7.1.125-.125-10.575-.747-13.561S431.6,623.4,431.6,623.4l.622-6.841s.872-4.606.125-5.85,1.119-6.087,1.119-6.087a12.739,12.739,0,0,1-.619-4.359c.25-1.616.619-7.714.619-7.714s-.619,4.234-2.347,6.719-1.508,24.761-1.508,24.761l.122,19.276c3.115,10.206,0,9.208,0,9.208s-11.816,2.614-14.2.5-1.7-15.441-1.7-15.441-.247-10.7.747-13.933,1.309-15.18,1.309-15.18-.064-23.892,0-25.5c.047-1.353,0-13.463,0-17.247v-1.119l1.427-3.544,16.909-2.117H442.3s12.174,2.861,13.432,4.1a.28.28,0,0,1,.068.074C456.618,564.283,454,576.349,454,576.349Z" transform="translate(-278.89 -376.184)" fill="#1078ad"/>
    <path id="Tracé_355" data-name="Tracé 355" d="M472.11,770.88s3.72,8.958,5.475,9.58S472.11,770.88,472.11,770.88Z" transform="translate(-317.526 -516.466)" opacity="0.1"/>
    <path id="Tracé_356" data-name="Tracé 356" d="M476.18,809.88s12.56.622,12.435,1.992S476.18,809.88,476.18,809.88Z" transform="translate(-320.22 -542.277)" opacity="0.1"/>
    <path id="Tracé_357" data-name="Tracé 357" d="M426.49,799.29c.5.47,9.58,1.353,8.833,2.212s-8.086,2.529-8.086,2.529Z" transform="translate(-287.333 -535.268)" opacity="0.1"/>
    <path id="Tracé_358" data-name="Tracé 358" d="M422.08,753.59c0,.372,1.867,11.944,2.367,12.441s4.6.994,4.6.994Z" transform="translate(-284.415 -505.022)" opacity="0.1"/>
    <path id="Tracé_359" data-name="Tracé 359" d="M436.636,280.693c-1.782,1.992-2.553,4.816-4.63,6.5a20.533,20.533,0,0,1-4.325,2.188,5.749,5.749,0,0,0-3.358,3.3c-.487,1.758.453,3.554.947,5.313a22,22,0,0,1,.571,5.624c.034,2.3.071,4.606.03,6.909-.061,3.588-.358,7.342-2.262,10.382,6.875,2.188,14.186,2.486,21.4,2.766a21.587,21.587,0,0,0,4.156-.1,35.667,35.667,0,0,0,3.541-.9,27.146,27.146,0,0,1,7.054-.9,11.844,11.844,0,0,0,3.1-.206,3.056,3.056,0,0,0,2.235-1.965,3.65,3.65,0,0,0-.572-2.665c-.839-1.474-2.029-2.705-2.929-4.159a11.43,11.43,0,0,1-.734-10.277c.8-1.857,2.083-3.473,2.868-5.333a11.248,11.248,0,0,0-2.266-11.931c-2.729-2.793-6.645-3.875-10.392-4.45a9.439,9.439,0,0,1-4.376-1.691,7.49,7.49,0,0,0-4.985-.967,8.136,8.136,0,0,0-5.069,2.563Z" transform="translate(-285.427 -190.302)" fill="#3f3d56"/>
    <g id="Groupe_73" data-name="Groupe 73" transform="translate(138.318 101.504)" opacity="0.1">
      <path id="Tracé_360" data-name="Tracé 360" d="M532.319,327.455a11.25,11.25,0,0,0-.862,5.164,11.056,11.056,0,0,1,.862-3.666c.795-1.857,2.08-3.473,2.864-5.333a10.791,10.791,0,0,0,.788-4.91,10.515,10.515,0,0,1-.788,3.416C534.4,323.986,533.114,325.6,532.319,327.455Z" transform="translate(-495.104 -318.71)"/>
      <path id="Tracé_361" data-name="Tracé 361" d="M427.283,331.515c.02,1.326.041,2.655.044,3.98q0-2.739-.044-5.472a21.944,21.944,0,0,0-.572-5.627,27.88,27.88,0,0,1-1.014-3.5c-.3,1.657.555,3.338,1.014,4.991A21.842,21.842,0,0,1,427.283,331.515Z" transform="translate(-425.085 -320.159)"/>
      <path id="Tracé_362" data-name="Tracé 362" d="M463.234,397.307a11.435,11.435,0,0,1-3.094.206,27.129,27.129,0,0,0-7.051.886,35.9,35.9,0,0,1-3.541.893,21.363,21.363,0,0,1-4.159.108c-6.966-.274-14.031-.568-20.7-2.56a11.475,11.475,0,0,1-.676,1.285c6.875,2.185,14.186,2.486,21.393,2.766a21.361,21.361,0,0,0,4.159-.108,34.97,34.97,0,0,0,3.527-.889,27.129,27.129,0,0,1,7.037-.9,11.676,11.676,0,0,0,3.094-.21,3.059,3.059,0,0,0,2.235-1.961,2.685,2.685,0,0,0-.034-1.407A3.157,3.157,0,0,1,463.234,397.307Z" transform="translate(-424.01 -369.479)"/>
    </g>
    <path id="Tracé_363" data-name="Tracé 363" d="M465.083,350.208c-.25.561-1.305,5.411-1.556,5.908s-1.616,8.454-1.742,8.9-9.005-1.867-9.005-1.867l-5.346-4.481-5.5-5.468s-.162-4.934,3.886-6.517a6.172,6.172,0,0,1,.845-.264c4.91-1.18,4.417-16.11,4.417-16.11l10.077,4.352s-1.867,8.711-1.8,10.392c.017.565.46.916,1.038,1.129a8.209,8.209,0,0,0,2.753.3S465.333,349.65,465.083,350.208Z" transform="translate(-297.557 -224.883)" fill="#fbbebe"/>
    <path id="Tracé_364" data-name="Tracé 364" d="M537.674,436.074l1.43.375s1.058,1.61-1.43,3.108a43.114,43.114,0,0,0-4.542,3.175l-7.355,2.239-1.417-4.447,6.845-5.194Z" transform="translate(-352.106 -294.389)" fill="#1078ad"/>
    <path id="Tracé_365" data-name="Tracé 365" d="M537.674,436.074l1.43.375s1.058,1.61-1.43,3.108a43.114,43.114,0,0,0-4.542,3.175l-7.355,2.239-1.417-4.447,6.845-5.194Z" transform="translate(-352.106 -294.389)" opacity="0.1"/>
    <path id="Tracé_366" data-name="Tracé 366" d="M399.4,448.648l-2.861,2.8s5.16,5.972,9.131,6.344,6.53-4.542,6.53-4.542l-3.436-5.411Z" transform="translate(-267.511 -302.668)" fill="#1078ad"/>
    <path id="Tracé_367" data-name="Tracé 367" d="M399.4,448.648l-2.861,2.8s5.16,5.972,9.131,6.344,6.53-4.542,6.53-4.542l-3.436-5.411Z" transform="translate(-267.511 -302.668)" opacity="0.1"/>
    <circle id="Ellipse_33" data-name="Ellipse 33" cx="9.952" cy="9.952" r="9.952" transform="translate(149.113 95.278)" opacity="0.1"/>
    <circle id="Ellipse_34" data-name="Ellipse 34" cx="9.952" cy="9.952" r="9.952" transform="translate(149.113 94.531)" fill="#fbbebe"/>
    <path id="Tracé_368" data-name="Tracé 368" d="M460,564.239a32.124,32.124,0,0,0-6.659,1.491c-3.72,1.238-32.87.02-33.276,0v-1.119l1.427-3.544,16.908-2.117h8.089s12.174,2.861,13.432,4.1C459.978,563.789,460,564.239,460,564.239Z" transform="translate(-283.084 -376.204)" opacity="0.1"/>
    <path id="Tracé_369" data-name="Tracé 369" d="M465.083,381.274c-.25.561-1.305,5.411-1.556,5.908s-1.616,8.454-1.742,8.9-9.005-1.867-9.005-1.867l-5.346-4.481-5.5-5.468s-.162-4.934,3.886-6.517l10.05,11.555L460.4,377.25a8.207,8.207,0,0,0,2.753.3S465.333,380.716,465.083,381.274Z" transform="translate(-297.557 -255.95)" opacity="0.1"/>
    <path id="Tracé_370" data-name="Tracé 370" d="M436.517,388.665,426.23,376.829a4.312,4.312,0,0,0-4.082-.3c-2.3,1-5.164,1.806-5.911,2.3a46.119,46.119,0,0,0-3.547,3.574l8.339,21.815-3.673,14.369s.561,7.342-.869,10.017a10.993,10.993,0,0,0-1.184,5.536,19.225,19.225,0,0,1-.061,5.411,9.012,9.012,0,0,0-.064,3.794s29.553,1.244,33.283,0a31.847,31.847,0,0,1,6.659-1.491s-.676-12.445-1.353-15.431.561-14.369.561-14.369l-.808-12.194,4.849-12.512s-2.628-8.021-5.367-8.83a53.18,53.18,0,0,1-6.033-1.742,21.155,21.155,0,0,0-4.17-1.058l-1.633.548Z" transform="translate(-278.2 -254.937)" fill="#1078ad"/>
    <rect id="Rectangle_102" data-name="Rectangle 102" width="23.685" height="36.245" rx="2.94" transform="translate(150.032 142.974) rotate(3.89)" opacity="0.1"/>
    <rect id="Rectangle_103" data-name="Rectangle 103" width="23.685" height="36.245" rx="2.94" transform="translate(150.777 142.232) rotate(3.89)" fill="#3f3d56"/>
    <rect id="Rectangle_104" data-name="Rectangle 104" width="20.635" height="31.186" transform="translate(152.114 145.051) rotate(3.89)" fill="#fff"/>
    <rect id="Rectangle_105" data-name="Rectangle 105" width="16.858" height="4.699" transform="translate(154.038 153.215) rotate(4.004)" opacity="0.1"/>
    <rect id="Rectangle_106" data-name="Rectangle 106" width="2.675" height="2.448" transform="translate(167.579 172.837) rotate(3.89)" opacity="0.1"/>
    <rect id="Rectangle_107" data-name="Rectangle 107" width="13.693" height="2.448" transform="translate(153.954 166.194) rotate(3.89)" opacity="0.1"/>
    <rect id="Rectangle_108" data-name="Rectangle 108" width="14.257" height="3.764" transform="translate(155.93 144.32) rotate(3.89)" fill="#3f3d56"/>
    <rect id="Rectangle_109" data-name="Rectangle 109" width="14.257" height="3.764" transform="translate(155.93 144.32) rotate(3.89)" opacity="0.1"/>
    <path id="Tracé_371" data-name="Tracé 371" d="M477.088,572.56s-.125,18.417-4.978,28.991c0,0,5.85-13.936,5.85-14.494s3.233-6.408,2.367-8.15S477.088,572.56,477.088,572.56Z" transform="translate(-317.526 -385.212)" opacity="0.1"/>
    <path id="Tracé_372" data-name="Tracé 372" d="M464.186,299.675a6.922,6.922,0,0,1,1.126-4.636,5.712,5.712,0,0,0,4.416,6.019.747.747,0,0,1-.213-.818,25.033,25.033,0,0,0,2.009,2.4,2.67,2.67,0,0,0,2.885.612c1.255-.676,1.268-2.458.944-3.845a18.059,18.059,0,0,0-4.156-7.937,5.5,5.5,0,0,0-4.362-2.218,10.732,10.732,0,0,0-5.637.883,14.981,14.981,0,0,0-2.705,1.89l-4.734,3.862a4.494,4.494,0,0,0-1.15,1.211,3.314,3.314,0,0,0-.358,1.268,6.834,6.834,0,0,0,3.186,6.449,5.042,5.042,0,0,1,3.02-4.734,1.312,1.312,0,0,1,.47.977l1-1.779a1.958,1.958,0,0,1,.676-.8,1.766,1.766,0,0,1,1.907.538,3.4,3.4,0,0,0,1.738,1.146l.027-2.648" transform="translate(-304.361 -197.68)" opacity="0.1"/>
    <path id="Tracé_373" data-name="Tracé 373" d="M464.213,298.574a6.926,6.926,0,0,1,1.126-4.64,5.715,5.715,0,0,0,4.42,6.019.74.74,0,0,1-.213-.815,25.46,25.46,0,0,0,2.009,2.4,2.656,2.656,0,0,0,2.885.609c1.255-.676,1.268-2.458.943-3.842a18.058,18.058,0,0,0-4.156-7.937,6.652,6.652,0,0,0-2.323-1.806,6.765,6.765,0,0,0-2.029-.413,10.729,10.729,0,0,0-5.637.879,15.172,15.172,0,0,0-2.705,1.894L453.8,294.79a4.447,4.447,0,0,0-1.15,1.211,3.3,3.3,0,0,0-.358,1.268,6.831,6.831,0,0,0,3.186,6.446,5.049,5.049,0,0,1,3.02-4.734,1.322,1.322,0,0,1,.47.977l.994-1.772a1.938,1.938,0,0,1,.676-.8,1.766,1.766,0,0,1,1.907.538,3.426,3.426,0,0,0,1.738,1.146l.027-2.651" transform="translate(-304.387 -196.952)" fill="#3f3d56"/>
    <path id="Tracé_374" data-name="Tracé 374" d="M442.753,467.045c-.869-.44-15.241,1.8-15.241,1.8a82.259,82.259,0,0,0-8.089-1.616,7.255,7.255,0,0,1-6.087-6.533l-.626-11.2,1.931-1.691,8.272,5.411a26.717,26.717,0,0,1,0,3.23,4.556,4.556,0,0,0-.277,1.015.338.338,0,0,0,.277.3c.561.142,8.211,1.38,8.211,1.38s17.73-1.214,22.15,4.758a4.489,4.489,0,0,1,.781,1.474C455.15,469.463,443.541,467.434,442.753,467.045Z" transform="translate(-278.213 -302.648)" fill="#fbbebe"/>
    <path id="Tracé_375" data-name="Tracé 375" d="M472.975,484.347c-.676.3-1.1.517-1.1.517s-6.344-.186-9.908-1.478a23.274,23.274,0,0,0-7.9-1.062s-14.852-2.557-12.549-5.894a.338.338,0,0,0,.277.3c.561.142,8.211,1.38,8.211,1.38s17.73-1.214,22.15,4.758A4.491,4.491,0,0,1,472.975,484.347Z" transform="translate(-297.123 -321.59)" opacity="0.1"/>
    <path id="Tracé_376" data-name="Tracé 376" d="M479.165,441.58s.872,6.158.933,6.659.375,6.53,0,7.217-.933,1.8-.933,1.8.622,1.305-1.867,1.806a25.547,25.547,0,0,0-5.411,1.988s-6.347-.186-9.891-1.491a22.827,22.827,0,0,0-7.9-1.058s-18.853-3.236-10.764-7.186a12.448,12.448,0,0,1,13.811,1.4l9.019-.558s3.361-2.056,4.295-1.867a3.453,3.453,0,0,0,1.928-.311l.064-6.533Z" transform="translate(-297.145 -298.525)" fill="#fbbebe"/>
    <path id="Tracé_377" data-name="Tracé 377" d="M403.757,396.695l-1.806-.095-5.472,21.3s5.908-1.495,8.454,0,7.217,1.8,7.217,1.8l-1.742-16.983Z" transform="translate(-267.472 -268.756)" opacity="0.1"/>
    <path id="Tracé_378" data-name="Tracé 378" d="M403.757,395.585l-1.806-.095-5.472,21.3s5.908-1.495,8.454,0,7.217,1.8,7.217,1.8l-1.742-16.983Z" transform="translate(-267.472 -268.021)" fill="#1078ad"/>
    <path id="Tracé_379" data-name="Tracé 379" d="M532.562,409.57l2.486.561s6.347,9.131,6.845,9.641-2.367,2.367-3.547,2.367-6.966.676-8.647,2.239-.981-6.3-.981-6.479,2.087-5.14,2.087-5.14Z" transform="translate(-354.894 -277.34)" opacity="0.1"/>
    <path id="Tracé_380" data-name="Tracé 380" d="M532.562,408.47l2.486.558s6.347,9.148,6.845,9.645-2.367,2.367-3.547,2.367-6.966.676-8.647,2.239-.981-6.3-.981-6.479,2.1-5.157,2.1-5.157Z" transform="translate(-354.894 -276.612)" fill="#1078ad"/>
    <g id="Groupe_74" data-name="Groupe 74" transform="translate(147.87 96.235)" opacity="0.1">
      <path id="Tracé_381" data-name="Tracé 381" d="M465.321,303.908a4.988,4.988,0,0,1,.017-.778,6.922,6.922,0,0,0-1.042,2.553v.944c0,.548,0,1.1-.017,1.647h-.047v.254a1.348,1.348,0,0,0-.017-.26,3.6,3.6,0,0,1-1.664-1.129c-.5-.453-1.292-.886-1.907-.538a1.938,1.938,0,0,0-.676.8l-1,1.772a1.309,1.309,0,0,0-.47-.974,5.042,5.042,0,0,0-3.02,4.734,6.872,6.872,0,0,1-3.209-5.387,6.838,6.838,0,0,0,3.209,6.131,5.049,5.049,0,0,1,3.02-4.734,1.322,1.322,0,0,1,.47.977l.994-1.772a1.938,1.938,0,0,1,.676-.8,1.766,1.766,0,0,1,1.907.538,3.426,3.426,0,0,0,1.738,1.146q0-1.3.027-2.59A6.888,6.888,0,0,1,465.321,303.908Z" transform="translate(-452.256 -303.13)"/>
      <path id="Tracé_382" data-name="Tracé 382" d="M487.5,312.35c.017-.23.044-.46.078-.676l.037-.933a6.845,6.845,0,0,0-.115,1.61Z" transform="translate(-475.573 -308.167)"/>
      <path id="Tracé_383" data-name="Tracé 383" d="M508.186,321.533a2.662,2.662,0,0,1-2.885-.609,25.047,25.047,0,0,1-2.009-2.4.747.747,0,0,0,.213.818.8.8,0,0,1-.2-.051,22.344,22.344,0,0,0,1.992,2.367,2.685,2.685,0,0,0,2.885.609,2.763,2.763,0,0,0,1.106-2.776A2.348,2.348,0,0,1,508.186,321.533Z" transform="translate(-486.004 -313.316)"/>
      <path id="Tracé_384" data-name="Tracé 384" d="M495.1,310.935a5.749,5.749,0,0,1-4.214-5.025,5.712,5.712,0,0,0,4.43,5.827A.744.744,0,0,1,495.1,310.935Z" transform="translate(-477.813 -304.97)"/>
    </g>
    <path id="Tracé_385" data-name="Tracé 385" d="M842.567,338.57s-1.332-.186-1.332-2.124a30.466,30.466,0,0,0-.954-5.566h0s-.825-6.314-1.965-7.315-2.6-6.878-2.6-6.878-.25-3.189-.761-3.875a32.924,32.924,0,0,1-2.218-4.765c-1.018-2.4-5.252-4.041-5.252-4.041s-7.673-4.45-9.848-5.9h0a3.364,3.364,0,0,1-.555-.419c-.379-.494-2.029-.5-2.029-.5a33.42,33.42,0,0,1-.392-3.476v-.365a11.7,11.7,0,0,0,5.144-6.364c.041-.129.074-.26.112-.392a1.1,1.1,0,0,0,.676-.6,11.935,11.935,0,0,1,.443-1.353,5.014,5.014,0,0,1,1.251-1.1,4.742,4.742,0,0,0,1.3-3.852c-.034-1.136-.216-2.279-.145-3.405a1.337,1.337,0,0,1,.02-.284c.02-.166.044-.338.074-.5.166-.839.528-1.63.73-2.462a3.167,3.167,0,0,0-.25-2.486c-.693-1.052-2.137-1.261-3.405-1.353-1.437-.122-2.705.034-3.642-1.16a12.749,12.749,0,0,0-1.447-1.745c-.189-.176-2.029-1.3-2.029-1.373a8.221,8.221,0,0,0-5.749-.443c-.957.277-1.853.73-2.824.957-2.083.494-4.484-.041-6.256,1.153a7.383,7.383,0,0,0-2.134,2.8q-.676,1.292-1.373,2.587a16.647,16.647,0,0,0-1.823,4.427,7.5,7.5,0,0,0-.125,1.038h0v.538a1.853,1.853,0,0,0,.02.338,1.963,1.963,0,0,0,.024.21c.024.071.03.23.051.338s.061.3.1.446a.687.687,0,0,0,.061.189c.02.064.074.227.118.338s.047.118.074.176a3.189,3.189,0,0,0,.172.338c.027.044.047.088.074.132a3.837,3.837,0,0,0,.311.453c.72.9,1.789,1.478,2.577,2.323v.379a11.576,11.576,0,0,0,5.3,9.435c0,.129.017.26.024.392a19.3,19.3,0,0,1-.037,3.01,1.427,1.427,0,0,0-1.123-.5,1.61,1.61,0,0,0-.433.037l-.03-.024h0v.03c-.744.183-1.661.957-2.536,3.159,0,0-2.665,3-4.694,2.878s-7.166,3.128-7.166,3.128-5.012,3.25-6.087,6.564a45.87,45.87,0,0,1-2.161,5.505l-6.212,12.756h0l-1.14,10.145a46.937,46.937,0,0,1,.507,5.191c-.125.69,2.6,6.878,2.6,6.878s9.005,15.82,12.685,16.631l.264-.183a2.3,2.3,0,0,0,.5.183l.758-.531a7.911,7.911,0,0,1-.061,1.782c-.5,1.566.193,11.758,1.079,13.757s.571,28.207.571,28.207l-.125,2.31a.982.982,0,0,0,.03.2l-.03.548.091.047a6.533,6.533,0,0,1-.091,2.2,24.449,24.449,0,0,0-.446,3.879s-2.536,16.192-1.332,19.445,2.222,6.817,2.222,6.817,1.268,4.058.061,4.734-4.626,1.877-3.929,3.564c.642,1.562,3.081,5.749,3.443,6.361l-.03.338-.5,5.387a6.764,6.764,0,0,0,.572,2.056,3.536,3.536,0,0,0,3.615,2.259c.338-.024.727-.061,1.109-.112a48.058,48.058,0,0,0,8.214-2.141,3.235,3.235,0,0,1-.639-.531h0a1.857,1.857,0,0,1-.565-1.353c.054-.984-1.782-5.654-2.242-6.807l-.1-.257s4.186-4.379,3.49-8.255c0,0-4.633-2.705-3.108-4.193a47.506,47.506,0,0,0,4.251-5.749s.125-15.945,0-18.322a19.751,19.751,0,0,1,.233-4.951c.051-.243.112-.484.176-.724a43.2,43.2,0,0,0,6.378.484q1.17,0,2.367-.047,0,.338.03.73c.176,3.95.5,10.879.771,13.452.379,3.686,2.472,13.632,2.472,13.632s-3.994,2.56.7,8.88a8.572,8.572,0,0,1-.311,2.621h0a28.624,28.624,0,0,0-.8,3.3,5.807,5.807,0,0,0,.041,3.016c.761,1.495,5.326,1.373,5.326,1.373h0a.718.718,0,0,1,.112-.017,6.517,6.517,0,0,1,4.832,1.454c1.735,1.393,8.316.785,11.883.338,1.4-.179,2.33-.338,2.33-.338a1.37,1.37,0,0,0,.047-.487h0c-.037-.876-.724-2.8-5.377-4.511,0,0-4.376-2.942-4.315-5.505h-.6c.318-.01.541-.01.541-.01s-1.715-6.253-1.015-6.763-1.4-7.44-1.4-7.44-1.2-11.633-1.268-12.445a7.151,7.151,0,0,1,.318-2.063l-.318-6.381s-.061-2.12,0-2.81a13.218,13.218,0,0,0-.142-1.789c-.03-.237-.061-.484-.095-.727,1.64-.416,2.705-.8,2.705-.8l-.189-22.2c1.393-2.705,1.65-8.644,1.644-12.85,0-2.705-.122-4.707-.122-4.707l1.9-3.108s.44-3.72-.257-4.535a.781.781,0,0,1,.084-1.065,3.547,3.547,0,0,1,.423-.3.534.534,0,0,1-.044-.074,3.362,3.362,0,0,1,.423-.3s-.676-1.048-.071-1.491c.568.385,1.075.693,1.461.913-.027.247-.054.389-.054.389l.162-.338.6.338s2.983-5.942,2.918-6.814,2.029-4.565,2.029-4.565a4.574,4.574,0,0,1,1.4-2.753c1.143-.812.886-6.692.886-6.692a14.383,14.383,0,0,1,1.079-4.312C844.008,340.268,842.567,338.57,842.567,338.57Zm-57.07-2.607.058,1.417c-.338-.544-.582-.933-.582-.933Z" transform="translate(-515.009 -181.099)" fill="url(#linear-gradient-2)"/>
    <path id="Tracé_386" data-name="Tracé 386" d="M946.172,542.231l-.73,3.111s-5.85-2.993-6.9-6.78,1.762-5.232,1.762-5.232l5.455,2.306Z" transform="translate(-626.067 -359.248)" fill="#fff"/>
    <path id="Tracé_387" data-name="Tracé 387" d="M946.172,542.231l-.73,3.111s-5.85-2.993-6.9-6.78,1.762-5.232,1.762-5.232l5.455,2.306Z" transform="translate(-626.067 -359.248)" opacity="0.1"/>
    <path id="Tracé_388" data-name="Tracé 388" d="M838.569,848.683a42.043,42.043,0,0,1-9.13,2.239,3.474,3.474,0,0,1-3.547-2.245,6.864,6.864,0,0,1-.561-2.029l.49-5.36.257-2.851,7.9-2.056,1.119,3.426.1.257c.446,1.146,2.252,5.793,2.2,6.763a1.856,1.856,0,0,0,.551,1.353A3.145,3.145,0,0,0,838.569,848.683Z" transform="translate(-551.297 -559.815)" fill="#fff"/>
    <path id="Tracé_389" data-name="Tracé 389" d="M926.211,845.229a1.354,1.354,0,0,1-.047.487s-11.572,1.928-13.939,0a6.266,6.266,0,0,0-4.856-1.431s-4.477.122-5.225-1.353a5.858,5.858,0,0,1-.037-3,28.768,28.768,0,0,1,.785-3.287l.179-.142,1.065-.856,12.472-.369h.095c-.061,2.55,4.231,5.475,4.231,5.475C925.5,842.446,926.173,844.356,926.211,845.229Z" transform="translate(-601.997 -559.087)" fill="#fff"/>
    <path id="Tracé_390" data-name="Tracé 390" d="M926.21,854.329a1.393,1.393,0,0,1-.051.487s-11.572,1.928-13.936,0a6.266,6.266,0,0,0-4.86-1.43s-4.481.122-5.228-1.353a5.907,5.907,0,0,1-.037-3c1.725.172,4.447.6,5.516,1.63,1.616,1.556,4.356,3.111,6.033,3.236C914.973,853.977,922.855,854.228,926.21,854.329Z" transform="translate(-601.993 -568.188)" opacity="0.1"/>
    <path id="Tracé_391" data-name="Tracé 391" d="M839.668,871.747a42.041,42.041,0,0,1-9.131,2.239,3.474,3.474,0,0,1-3.547-2.246c1.38.463,3.29.947,4.295.5,1.19-.531,5.411-.869,7.778-1.015a3.077,3.077,0,0,0,.605.517Z" transform="translate(-552.396 -582.88)" opacity="0.1"/>
    <path id="Tracé_392" data-name="Tracé 392" d="M870.613,359.154c-4.464-1.735-10.206-7.467-8.772-10.145a6.062,6.062,0,0,0,.558-2.151,19.632,19.632,0,0,0,.041-3.044,41.8,41.8,0,0,0-.6-4.954s13.936.314,13.124,2.367a7.615,7.615,0,0,0-.21,2.817c.068,1.167.233,2.5.409,3.615.24,1.532.487,2.705.487,2.705s-.856,1.194-1.353,1.258S877.018,361.639,870.613,359.154Z" transform="translate(-575.313 -230.542)" fill="#cf6f80"/>
    <path id="Tracé_393" data-name="Tracé 393" d="M836.124,840.013l-.1.115c-4.166-5.039-9.205,1.244-9.205,1.244l-.074-.135.257-2.851,7.9-2.056,1.119,3.426Z" transform="translate(-552.23 -559.782)" opacity="0.1"/>
    <path id="Tracé_394" data-name="Tracé 394" d="M918.6,835.609s-3.044-.061-4.667,1.373-9.469.308-9.131,0a1.169,1.169,0,0,0,.176-.517l1.065-.856,12.472-.369C918.559,835.477,918.6,835.609,918.6,835.609Z" transform="translate(-603.885 -559.061)" opacity="0.1"/>
    <path id="Tracé_395" data-name="Tracé 395" d="M834.565,706.249a9.487,9.487,0,0,0-.514,1.735,19.866,19.866,0,0,0-.233,4.924c.125,2.367,0,18.231,0,18.231a48.271,48.271,0,0,1-4.17,5.722c-1.495,1.491,3.044,4.17,3.044,4.17.676,3.858-3.422,8.214-3.422,8.214-4.166-5.039-9.205,1.241-9.205,1.241s-2.739-4.734-3.422-6.425,2.675-2.858,3.855-3.547-.061-4.734-.061-4.734-.994-3.547-2.178-6.784,1.305-19.343,1.305-19.343a25,25,0,0,1,.436-3.862,6.542,6.542,0,0,0,.091-2.191c-.02-.247-.044-.45-.061-.592s-.031-.2-.031-.2l.047-.081,1.691-3.152S835.377,704.264,834.565,706.249Z" transform="translate(-545.487 -469.271)" fill="#1078ad"/>
    <path id="Tracé_396" data-name="Tracé 396" d="M911.443,751.952s-3.044-.064-4.667,1.353-9.469.311-9.131,0,.308-2.611.308-2.611c-4.6-6.287-.676-8.836-.676-8.836s-2.053-9.891-2.425-13.561c-.26-2.56-.582-9.469-.754-13.381-.074-1.691-.118-2.858-.118-2.858l3.727-.741.484-.095,9.07-1.823s.25,1.691.419,3.074a13.481,13.481,0,0,1,.139,1.782c-.057.676,0,2.8,0,2.8l.311,6.344a7.319,7.319,0,0,0-.311,2.053c.064.812,1.245,12.38,1.245,12.38s2.053,6.905,1.353,7.4S911.443,751.952,911.443,751.952Z" transform="translate(-596.732 -475.776)" fill="#1078ad"/>
    <path id="Tracé_397" data-name="Tracé 397" d="M875.4,341.257a7.614,7.614,0,0,0-.21,2.817,11.582,11.582,0,0,1-12.316-.23,41.786,41.786,0,0,0-.6-4.954S876.216,339.2,875.4,341.257Z" transform="translate(-575.752 -230.562)" opacity="0.1"/>
    <path id="Tracé_398" data-name="Tracé 398" d="M871.718,301.162a11.57,11.57,0,1,1-23.138.277v-.277a11.572,11.572,0,1,1,23.144,0Z" transform="translate(-566.685 -197.934)" fill="#cf6f80"/>
    <path id="Tracé_399" data-name="Tracé 399" d="M870.613,374.806c-4.464-1.735-10.206-7.467-8.772-10.145a6.062,6.062,0,0,0,.558-2.151l6.111,5.025,3.781,3.1,2.874-7.315c.24,1.532.487,2.705.487,2.705s-.856,1.194-1.353,1.258S877.018,377.291,870.613,374.806Z" transform="translate(-575.313 -246.194)" opacity="0.1"/>
    <path id="Tracé_400" data-name="Tracé 400" d="M862.255,377.428l-5.1,85.726-6.655.436L833.26,413.882l2.827-59.014.6-12.468,7.663,6.293,3.781,3.1,2.959-7.531,5.5,4.8Z" transform="translate(-551.152 -226.608)" fill="#1078ad"/>
    <path id="Tracé_401" data-name="Tracé 401" d="M841.3,706.3a9.483,9.483,0,0,0-.514,1.735,49.037,49.037,0,0,1-13.966-4.359l-.091-.047.03-.544V702.8l1.691-3.152S842.113,704.317,841.3,706.3Z" transform="translate(-552.224 -469.323)" opacity="0.1"/>
    <path id="Tracé_402" data-name="Tracé 402" d="M897.779,718.256a34.234,34.234,0,0,1-3.74.43c-.074-1.691-.118-2.857-.118-2.857l3.747-.758Z" transform="translate(-596.692 -479.529)" opacity="0.1"/>
    <path id="Tracé_403" data-name="Tracé 403" d="M915.959,712.474a26.258,26.258,0,0,1-9.442.889l-.047-2.141,9.07-1.823S915.78,711.077,915.959,712.474Z" transform="translate(-604.998 -475.776)" opacity="0.1"/>
    <path id="Tracé_404" data-name="Tracé 404" d="M820.6,483.1c-13.865,2.367-26.563-4.42-26.563-4.42l.122-2.3s.314-26.07-.558-28.068-1.552-12.12-1.058-13.665-1.8-24.879-1.8-24.879l-.372-9.469-13.625-5.536,6.087-12.692a45.864,45.864,0,0,0,2.117-5.478c1.059-3.3,5.972-6.533,5.972-6.533s5.039-3.233,7.031-3.111,4.6-2.861,4.6-2.861c1.928-4.914,3.672-2.705,3.672-2.705a4.349,4.349,0,0,1-.095.727c-.676,5.394,10.936,22.438,11.1,22.742h0l1.119,26.939,1.119,34.091Z" transform="translate(-519.139 -245.12)" opacity="0.1"/>
    <path id="Tracé_405" data-name="Tracé 405" d="M819.477,483.1c-13.865,2.367-26.567-4.42-26.567-4.42l.125-2.3s.311-26.07-.561-28.068-1.552-12.13-1.055-13.689-1.813-24.869-1.813-24.869l-.375-9.469-13.622-5.536,6.087-12.692a46.59,46.59,0,0,0,2.117-5.475c1.058-3.287,5.989-6.527,5.989-6.527s5.039-3.233,7.027-3.111,4.613-2.858,4.613-2.858c1.931-4.914,4.058-2.705,4.058-2.705,0,.237-.2.338-.095.727,1.488,5.232,10.564,22.438,10.73,22.742h0l1.119,26.939,1.1,34.108Z" transform="translate(-518.391 -245.12)" fill="#fff"/>
    <path id="Tracé_406" data-name="Tracé 406" d="M869.283,387.123c-1.491-.622-9.391-9.641-9.391-9.641v-2.053c-.287-.676-2-.264-3.382.21l.6-12.468.676.561C859.259,368.959,869.12,386.822,869.283,387.123Z" transform="translate(-571.933 -246.631)" opacity="0.1"/>
    <path id="Tracé_407" data-name="Tracé 407" d="M870.386,384.942c-1.495-.626-9.394-9.641-9.394-9.641v-2.056c-.287-.676-2-.264-3.382.21L858.2,361l.676.558C860.363,366.779,870.22,384.638,870.386,384.942Z" transform="translate(-572.661 -245.195)" fill="#fff"/>
    <path id="Tracé_408" data-name="Tracé 408" d="M826.391,562.854c.186,0,9.641-.994,9.641-.994s5.725,11.261,5.35,14-1.055,5.164-3.358,4.734-12.394.338-12.394.338Z" transform="translate(-551.496 -378.13)" opacity="0.1"/>
    <path id="Tracé_409" data-name="Tracé 409" d="M825.281,560.644c.189,0,9.645-.994,9.645-.994s5.722,11.278,5.35,13.983-1.058,5.164-3.358,4.734-12.4.338-12.4.338Z" transform="translate(-550.761 -376.667)" fill="#fff"/>
    <path id="Tracé_410" data-name="Tracé 410" d="M837.721,547s8.677,4.667,8.863,6.087-4.416-.622-5.411-.872a12.891,12.891,0,0,0-1.992-.311l-6.632.179Z" transform="translate(-556.076 -368.295)" fill="#cf6f80"/>
    <circle id="Ellipse_35" data-name="Ellipse 35" cx="0.913" cy="0.913" r="0.913" transform="translate(294.012 139.247)" opacity="0.1"/>
    <circle id="Ellipse_36" data-name="Ellipse 36" cx="0.913" cy="0.913" r="0.913" transform="translate(294.012 138.875)" fill="#3f3d56"/>
    <circle id="Ellipse_37" data-name="Ellipse 37" cx="0.913" cy="0.913" r="0.913" transform="translate(295.693 178.773)" opacity="0.1"/>
    <circle id="Ellipse_38" data-name="Ellipse 38" cx="0.913" cy="0.913" r="0.913" transform="translate(295.693 178.397)" fill="#3f3d56"/>
    <circle id="Ellipse_39" data-name="Ellipse 39" cx="0.913" cy="0.913" r="0.913" transform="translate(294.925 159.01)" opacity="0.1"/>
    <circle id="Ellipse_40" data-name="Ellipse 40" cx="0.913" cy="0.913" r="0.913" transform="translate(294.925 158.638)" fill="#3f3d56"/>
    <path id="Tracé_411" data-name="Tracé 411" d="M918.694,431.123s.622.933,0,1.353.061,1.495.061,1.495-1.552.906-.869,1.728.25,4.511.25,4.511l-1.867,3.108s.112,1.992.118,4.684c0,4.2-.247,10.1-1.613,12.8l.183,22.086s-6.537,2.391-12.008,1.66l-.812-35.44s1.184-20.1,1.62-23.953a40.118,40.118,0,0,0,.311-6.036,67.358,67.358,0,0,0-.812-8.83s-.676-12.134-.744-15.492c-.031-1.606.054-6.293.149-10.75.1-4.873.223-9.469.223-9.469l-1.234-9.77s1.234-.122,1.606.372a3.552,3.552,0,0,0,.541.416h0c2.134,1.441,9.661,5.871,9.661,5.871s4.166,1.657,5.164,4.031a35.114,35.114,0,0,0,2.174,4.734c.484.676.747,3.855.747,3.855s1.434,5.85,2.553,6.841,1.924,7.281,1.924,7.281l-9.891,7.778s-.869,12.938-1.055,13.439S918.694,431.123,918.694,431.123Z" transform="translate(-601.808 -247.704)" fill="#fff"/>
    <path id="Tracé_412" data-name="Tracé 412" d="M919.049,430.891s.619.933,0,1.353.057,1.495.057,1.495-1.552.906-.869,1.728.25,4.511.25,4.511l-1.86,3.108s.112,1.992.122,4.684c0,4.2-.247,10.1-1.613,12.8l.186,22.086s-6.537,2.391-12.008,1.66l-.808-35.44s1.18-20.1,1.62-23.953a39.758,39.758,0,0,0,.308-6.036,67.777,67.777,0,0,0-.808-8.83s-.676-12.134-.747-15.492c-.03-1.606.054-6.293.149-10.75.1-4.873.223-9.469.223-9.469l-1.63-9.9s1.63,0,2.005.5a3.21,3.21,0,0,0,.541.416h0c2.13,1.441,9.658,5.871,9.658,5.871s4.156,1.657,5.171,4.031A37.5,37.5,0,0,0,921.169,380c.484.676.747,3.855.747,3.855s1.434,5.85,2.553,6.841,1.928,7.281,1.928,7.281l-9.891,7.778s-.869,12.938-1.059,13.439S919.049,430.891,919.049,430.891Z" transform="translate(-601.788 -247.472)" fill="#fff"/>
    <path id="Tracé_413" data-name="Tracé 413" d="M907.925,378.669l.9,2.6-4.7,4.734c.1-4.873.223-9.469.223-9.469l-1.63-9.9s1.63,0,2.005.5a3.214,3.214,0,0,0,.541.416h0l4,11.528Z" transform="translate(-602.51 -248.928)" opacity="0.1"/>
    <path id="Tracé_414" data-name="Tracé 414" d="M906.795,376.445l.9,2.6-4.7,4.734c.1-4.873.223-9.469.223-9.469l-1.633-9.9s1.633,0,2.005.5a3.382,3.382,0,0,0,.541.416h0l4.021,11.538Z" transform="translate(-601.762 -247.452)" fill="#fff"/>
    <path id="Tracé_415" data-name="Tracé 415" d="M871.718,301.162a11.534,11.534,0,0,1-.568,3.588.48.48,0,0,1-.365-.088,14.963,14.963,0,0,0-3.429-8.336,8.831,8.831,0,0,0-1.86-1.928,3.642,3.642,0,0,0-2.523-.714c-1.015.139-1.911.828-2.935.916-1.353.112-2.563-.825-3.906-.869a3.828,3.828,0,0,0-2.871,1.332,7.831,7.831,0,0,0-1.539,2.851,16.7,16.7,0,0,0-.859,4.924c-.017.947-.108,2.134-.987,2.479a5.039,5.039,0,0,0-1.275-3.855l-.02-.024v-.277a11.572,11.572,0,1,1,23.144,0Z" transform="translate(-566.685 -197.934)" opacity="0.1"/>
    <path id="Tracé_416" data-name="Tracé 416" d="M858.064,268a7.967,7.967,0,0,0-5.62-.44c-.937.277-1.819.727-2.77.954-2.029.49-4.4-.041-6.138,1.146a7.327,7.327,0,0,0-2.09,2.787l-1.353,2.573a16.717,16.717,0,0,0-1.789,4.4,5.624,5.624,0,0,0,.862,4.542c.714.906,1.775,1.478,2.553,2.333a5.072,5.072,0,0,1,1.272,3.865c.879-.338.967-1.532.987-2.479a16.722,16.722,0,0,1,.859-4.924,7.835,7.835,0,0,1,1.539-2.851,3.831,3.831,0,0,1,2.871-1.336c1.353.047,2.567.984,3.906.869,1.014-.085,1.914-.774,2.935-.913a3.625,3.625,0,0,1,2.523.714,8.661,8.661,0,0,1,1.857,1.928A14.9,14.9,0,0,1,863.9,289.5c.382.277.933-.088,1.123-.521a12.376,12.376,0,0,1,.436-1.353,5,5,0,0,1,1.224-1.092,4.787,4.787,0,0,0,1.278-3.831,19.094,19.094,0,0,1-.047-4.166c.159-.835.517-1.623.714-2.452a3.205,3.205,0,0,0-.243-2.472c-.676-1.045-2.1-1.255-3.341-1.353-1.41-.122-2.672.034-3.571-1.153a13.222,13.222,0,0,0-1.42-1.738C859.866,269.187,858.064,268.071,858.064,268Z" transform="translate(-559.794 -183.141)" fill="#512e4e"/>
    <path id="Tracé_417" data-name="Tracé 417" d="M779.18,467.58l-3.531-6.53-1.119,10.077a46.713,46.713,0,0,1,.5,5.164c-.125.686,2.55,6.841,2.55,6.841s8.836,15.742,12.445,16.55l12.174-8.711-3.233-4.105s-1.119-.436-1.4,0c0,0-6.006-10.328-6.625-11.072a3.763,3.763,0,0,1-.5-2.242s-.933-.994-.622-1.928-1.785-4.166-1.785-4.166l1.927-1.8Z" transform="translate(-517.676 -311.411)" opacity="0.1"/>
    <path id="Tracé_418" data-name="Tracé 418" d="M774.373,458.84l-.933.747-1.119,10.078a46.723,46.723,0,0,1,.5,5.164c-.125.686,2.553,6.841,2.553,6.841s8.833,15.742,12.441,16.55l12.194-8.711L796.77,485.4s-1.119-.436-1.4,0c0,0-6-10.328-6.625-11.072a3.724,3.724,0,0,1-.5-2.242s-.933-.994-.622-1.928S785.82,466,785.82,466l1.928-1.8Z" transform="translate(-516.214 -309.948)" fill="#fff"/>
    <path id="Tracé_419" data-name="Tracé 419" d="M935.846,563.839c.676.822.25,4.515.25,4.515l-1.867,3.088s.112,2,.118,4.687l-3.138.981a1.867,1.867,0,0,1-2.421-1.84l.544-17.45,7.321,2.8c-.622.433.061,1.495.061,1.495S935.163,563.018,935.846,563.839Z" transform="translate(-619.768 -375.456)" opacity="0.1"/>
    <path id="Tracé_420" data-name="Tracé 420" d="M936.959,562.733c.676.818.25,4.511.25,4.511l-1.86,3.091s.112,1.992.122,4.684l-3.2,1a1.823,1.823,0,0,1-2.367-1.8l.544-17.51,7.318,2.8c-.626.433.057,1.495.057,1.495S936.276,561.911,936.959,562.733Z" transform="translate(-620.51 -374.721)" fill="#fff"/>
    <path id="Tracé_421" data-name="Tracé 421" d="M946.475,544.571s-.5,3.175-1.742,3.361-1.8,5.137-3.044,4.964-.419-4.606-.375-5.465-1.353-4.417-.311-5.225,4.356,0,4.356,0Z" transform="translate(-627.597 -364.885)" fill="#cf6f80"/>
    <path id="Tracé_422" data-name="Tracé 422" d="M946.556,468.334,948.9,463.6a30.637,30.637,0,0,1,.937,5.536c0,1.928,1.305,2.117,1.305,2.117s1.43,1.691.676,2.925a14.154,14.154,0,0,0-1.055,4.291s.247,5.847-.872,6.655a4.592,4.592,0,0,0-1.37,2.739s-2.053,3.669-1.988,4.542-2.861,6.78-2.861,6.78,1.43-7.342-6.905-10.514c0,0-.064-2.489.558-3.172s1.593-1.014.984-4.45a40.33,40.33,0,0,1-.176-8.407A52.861,52.861,0,0,1,940,466.65Z" transform="translate(-625.048 -313.099)" opacity="0.1"/>
    <path id="Tracé_423" data-name="Tracé 423" d="M949.087,461.6l2.049.676a30.637,30.637,0,0,1,.937,5.536c0,1.928,1.305,2.117,1.305,2.117s1.431,1.691.676,2.925A14.19,14.19,0,0,0,953,477.146s.25,5.847-.869,6.655a4.529,4.529,0,0,0-1.353,2.739s-2.053,3.669-1.989,4.542-2.864,6.78-2.864,6.78,1.43-7.342-6.905-10.514c0,0-.061-2.489.561-3.172s1.593-1.014.984-4.45a40.334,40.334,0,0,1-.176-8.407,52.863,52.863,0,0,1,1.867-5.992Z" transform="translate(-626.538 -311.775)" fill="#fff"/>
    <path id="Tracé_424" data-name="Tracé 424" d="M834.92,822.308s3.267-2.053,5.411-.561S834.92,822.308,834.92,822.308Z" transform="translate(-557.644 -549.771)" opacity="0.1"/>
    <path id="Tracé_425" data-name="Tracé 425" d="M910,805.664a6.613,6.613,0,0,1,5.319,2.242C917.748,810.52,910,805.664,910,805.664Z" transform="translate(-607.335 -539.475)" opacity="0.1"/>
    <g id="Groupe_75" data-name="Groupe 75" transform="translate(278.37 91.545)" opacity="0.1">
      <path id="Tracé_426" data-name="Tracé 426" d="M876.135,306.38c-.416.362-.95.616-1.228,1.092a12.624,12.624,0,0,0-.433,1.353c-.189.436-.741.8-1.126.521a14.948,14.948,0,0,0-3.429-8.336,8.649,8.649,0,0,0-1.857-1.924,3.635,3.635,0,0,0-2.526-.717c-1.014.139-1.907.829-2.932.916-1.353.112-2.567-.825-3.909-.869a3.815,3.815,0,0,0-2.868,1.332,7.831,7.831,0,0,0-1.539,2.851,16.717,16.717,0,0,0-.859,4.924c-.02.943-.108,2.12-.981,2.472a4.685,4.685,0,0,1,0,.754c.883-.338.971-1.532.991-2.479a16.721,16.721,0,0,1,.859-4.924,7.83,7.83,0,0,1,1.539-2.851,3.828,3.828,0,0,1,2.868-1.336c1.353.047,2.57.984,3.909.869,1.015-.085,1.914-.774,2.932-.913a3.635,3.635,0,0,1,2.526.714,8.665,8.665,0,0,1,1.857,1.928,14.918,14.918,0,0,1,3.429,8.336c.386.277.937-.088,1.126-.521a13.118,13.118,0,0,1,.433-1.353,5.017,5.017,0,0,1,1.228-1.092,4.786,4.786,0,0,0,1.278-3.831v-.129A4.447,4.447,0,0,1,876.135,306.38Z" transform="translate(-847.616 -295.278)"/>
      <path id="Tracé_427" data-name="Tracé 427" d="M841.707,311.4c-.774-.856-1.836-1.43-2.55-2.337a4.907,4.907,0,0,1-.984-2.766,5.211,5.211,0,0,0,.984,3.514c.714.906,1.775,1.478,2.55,2.333a5.073,5.073,0,0,1,1.278,3.016A5.072,5.072,0,0,0,841.707,311.4Z" transform="translate(-838.155 -300.538)"/>
      <path id="Tracé_428" data-name="Tracé 428" d="M926.614,289.913c-.2.828-.555,1.616-.717,2.452a7.835,7.835,0,0,0-.1,1.711,6.568,6.568,0,0,1,.1-.964c.162-.835.517-1.623.717-2.452a4.249,4.249,0,0,0,.112-1.4,4.7,4.7,0,0,1-.112.653Z" transform="translate(-896.15 -289.26)"/>
    </g>
    <ellipse id="Ellipse_41" data-name="Ellipse 41" cx="32.951" cy="5.292" rx="32.951" ry="5.292" transform="translate(12.258 273.102)" fill="#1078ad" opacity="0.1"/>
    <rect id="Rectangle_110" data-name="Rectangle 110" width="2.12" height="47.74" transform="translate(44.151 177.007)" fill="#535461"/>
    <path id="Tracé_429" data-name="Tracé 429" d="M134.905,676.39l-.135,2.151-.186,3.044-.078,1.265-.189,3.044-.081,1.265-.186,3.044-2.141,34.517a5.844,5.844,0,0,1-5.833,5.485H114.96a5.84,5.84,0,0,1-5.833-5.509l-2.141-34.517-.186-3.044-.078-1.265-.193-3.044-.078-1.265-.186-3.044-.135-2.151a3.044,3.044,0,0,1,3.023-3.216h22.732a3.044,3.044,0,0,1,3.02,3.24Z" transform="translate(-75.307 -451.785)" fill="#3f3d56"/>
    <path id="Tracé_430" data-name="Tracé 430" d="M119.088,670.52l-.189,3.037H90.769l-.189-3.037Z" transform="translate(-59.624 -443.768)" fill="#9d9cb5"/>
    <path id="Tracé_431" data-name="Tracé 431" d="M119.343,683.24l-.186,3.037h-27.6l-.189-3.037Z" transform="translate(-60.147 -452.186)" fill="#9d9cb5"/>
    <path id="Tracé_432" data-name="Tracé 432" d="M119.6,695.97,119.413,699H92.349l-.189-3.033Z" transform="translate(-60.67 -460.612)" fill="#9d9cb5"/>
    <path id="Tracé_433" data-name="Tracé 433" d="M43.683,576.435c12.35,8.934,17.494,22.908,17.494,22.908S46.3,598.832,33.944,589.9,16.44,567,16.44,567,31.319,567.5,43.683,576.435Z" transform="translate(-15.95 -381.532)" fill="#1078ad"/>
    <path id="Tracé_434" data-name="Tracé 434" d="M16.44,567s15.444,8.573,20.4,15.671,24.325,16.679,24.325,16.679" transform="translate(-15.95 -381.532)" fill="none" stroke="#535461" stroke-miterlimit="10" stroke-width="2"/>
    <path id="Tracé_435" data-name="Tracé 435" d="M91.522,531.62a29.94,29.94,0,0,1,9.523,12.465,29.918,29.918,0,0,1-14.822-5.137A30.114,30.114,0,0,1,76.7,526.48,29.94,29.94,0,0,1,91.522,531.62Z" transform="translate(-55.832 -354.714)" fill="#1078ad"/>
    <path id="Tracé_436" data-name="Tracé 436" d="M76.7,526.48s8.407,4.667,11.106,8.529,13.239,9.076,13.239,9.076" transform="translate(-55.832 -354.714)" fill="none" stroke="#535461" stroke-miterlimit="10" stroke-width="2"/>
    <path id="Tracé_437" data-name="Tracé 437" d="M159.264,555.56c-7.72,8.485-9.354,19.573-9.354,19.573s10.886-2.672,18.6-11.16,9.354-19.573,9.354-19.573S166.984,547.075,159.264,555.56Z" transform="translate(-104.284 -366.574)" fill="#1078ad"/>
    <path id="Tracé_438" data-name="Tracé 438" d="M177.87,544.41s-10.057,8.7-12.614,14.69S149.91,575.14,149.91,575.14" transform="translate(-104.284 -366.581)" fill="none" stroke="#535461" stroke-miterlimit="10" stroke-width="2"/>
  </g>
</svg>
