<svg xmlns="http://www.w3.org/2000/svg" width="28.608" height="70.655" viewBox="0 0 28.608 70.655">
  <path id="Tracé_868" data-name="Tracé 868" d="M17.341,49.21V42.987h4.572a1.065,1.065,0,0,0,0-2.13H17.341V38.59H20a1.065,1.065,0,1,0,0-2.13H17.341V34.194h4.572a1.065,1.065,0,0,0,0-2.13H17.341V29.807H20a1.065,1.065,0,0,0,0-2.13H17.341V25.4h4.572a1.065,1.065,0,0,0,0-2.13H17.341v-5.08a5.539,5.539,0,1,0-11.079,0V48.9a11.509,11.509,0,1,0,11.079.313ZM11.48,68.691A9.545,9.545,0,0,1,8.324,50.128h.107V19.07a3.331,3.331,0,0,1,6.663,0V50.333A9.545,9.545,0,0,1,11.48,68.71Zm6.673-9.545a6.389,6.389,0,1,1-8.724-5.94c.205-.078.41-.147.625-.205V22.851h3.038V52.893a6.155,6.155,0,0,1,1.045.313,6.389,6.389,0,0,1,4.054,5.94Zm0-54.486a2.384,2.384,0,1,1,.039,0Zm0-3.683a1.424,1.424,0,1,0,.039,0Zm8.793,12.9H28.6a3.146,3.146,0,0,1-.606,1.671,3.908,3.908,0,0,1-1.485,1.27,4.357,4.357,0,0,1-1.954.479,4.23,4.23,0,0,1-3.331-1.4,5.6,5.6,0,0,1-1.241-3.82v-.293a6.116,6.116,0,0,1,.557-2.667,4.181,4.181,0,0,1,1.573-1.807,4.475,4.475,0,0,1,2.433-.645A4.094,4.094,0,0,1,27.4,7.7a3.664,3.664,0,0,1,1.211,2.677H27a2.413,2.413,0,0,0-.752-1.583,2.355,2.355,0,0,0-1.671-.645,2.442,2.442,0,0,0-2.071.977,4.494,4.494,0,0,0-.733,2.775v.332a4.465,4.465,0,0,0,.694,2.667,2.452,2.452,0,0,0,2.091.977,2.491,2.491,0,0,0,1.632-.567A1.954,1.954,0,0,0,27,13.873Z" transform="translate(-0.008 0.01)" fill="#1078ad"/>
</svg>
